<?xml version="1.0" standalone="no"?>
<!DOCTYPE svg PUBLIC "-//W3C//DTD SVG 1.1//EN" "http://www.w3.org/Graphics/SVG/1.1/DTD/svg11.dtd">
<svg xmlns="http://www.w3.org/2000/svg">
<metadata>Generated by Fontastic.me</metadata>
<defs>
<font id="untitled-font-5" horiz-adv-x="512">
<font-face font-family="untitled-font-5" units-per-em="512" ascent="480" descent="-32"/>
<missing-glyph horiz-adv-x="512" />

<glyph unicode="&#97;" d="M253 28c-117 0-212 95-212 212 0 117 95 212 212 212 117 0 212-95 212-212 0-117-95-212-212-212z m0 396c-101 0-183-83-183-184 0-101 82-184 183-184 102 0 184 83 184 184 0 101-82 184-184 184z m-75-324c-1 0-2 0-3 1-51 28-82 81-82 139 0 4 4 7 7 7 4 0 8-3 8-7 0-52 28-101 74-127 3-2 4-6 2-10-1-2-3-3-6-3z m61-19c0 0 0 0 0 0-3 0-6 0-9 1-4 0-7 4-6 8 0 4 4 6 8 6 2-1 5-1 8-1 4-1 7-4 6-8 0-4-3-6-7-6z m-160 255c-2 0-5 0-7 2-24 15-38 41-38 69 0 45 37 82 82 82 33 0 62-20 75-50 3-8 0-16-7-19-8-3-16 0-19 8-8 19-28 32-49 32-30 0-54-24-54-53 0-18 10-35 25-45 7-4 8-13 4-20-2-4-7-6-12-6z m354 0c-5 0-10 2-12 6-4 7-3 16 4 20 15 10 25 27 25 45 0 29-24 53-54 53-21 0-41-13-49-32-3-8-11-11-19-8-7 3-10 11-7 19 13 30 42 50 75 50 45 0 82-37 82-82 0-28-14-54-38-69-2-2-5-2-7-2z m-330-313c-3 0-6 1-8 3-6 5-8 14-3 20l31 41c5 6 14 7 20 3 6-5 8-14 3-20l-31-41c-3-4-7-6-12-6z m295 0c-4 0-8 2-11 6l-31 41c-5 6-4 15 3 20 6 4 15 3 20-3l31-41c5-6 3-15-3-20-2-2-6-3-9-3z m-104 158c-4 0-8 2-10 5l-39 40c-2 3-2 7-2 10l0 113c0 8 7 14 14 14 8 0 15-6 15-14l0-107 34-36c5-6 4-15-1-21-3-2-8-4-11-4z"/>
<glyph unicode="&#98;" d="M81 70c-2 0-4 1-5 2-8 8-12 19-12 30 0 4 3 7 7 7 0 0 0 0 0 0 4 0 7-3 7-7 0-7 3-14 8-20 3-3 3-7 0-10-1-1-3-2-5-2z m284 57c-1 0-3 1-5 2-7 8-12 19-12 30 0 4 3 7 7 7 4 0 7-3 7-7 0-7 3-15 9-20 2-3 2-7-1-10-1-1-3-2-5-2z m-260-68c-1 0-3 0-4 1-4 1-6 5-5 9 1 3 5 5 9 4 0 0 1 0 2 0 4 0 7-3 7-7 0-3-3-7-7-7 0 0-1 0-2 0z m290 14c-47 0-85 39-85 86 0 47 38 85 85 85 40 0 85-10 87-11 6-1 11-6 11-12 1-3 7-77-31-119-17-19-39-29-67-29z m0 143c-31 0-57-26-57-57 0-32 26-57 57-57 20 0 35 6 46 19 23 24 25 67 24 87-15 3-44 8-70 8z m84-9c-8 0-14 5-14 13l-1 256c0 8 6 15 14 15 0 0 0 0 0 0 8 0 14-8 14-15l1-255c0-8-6-14-14-14 0 0 0 0 0 0z m-376-190c-47 0-85 38-85 85 0 47 38 85 85 85 41 0 86-10 88-11 6-1 10-6 11-12 0-3 7-77-31-119-17-19-40-28-68-28z m0 142c-31 0-56-26-56-57 0-31 25-57 56-57 20 0 35 6 47 19 22 24 24 67 24 87-15 3-45 8-71 8z m85-16c-8 0-15 5-15 13l-1 263c0 8 6 15 14 15 0 0 0 0 0 0 8 0 15-7 15-15l1-262c0-8-7-14-14-14 0 0 0 0 0 0z m-2 268c-6 0-12 5-14 12-1 8 4 15 12 16l291 56c8 2 15-3 17-11 1-8-4-15-11-17l-292-55c-1-1-2-1-3-1z m7-55c-7 0-13 4-14 11-2 8 3 15 11 17l285 54c8 2 15-3 17-11 1-8-4-15-11-17l-286-54c0 0-1 0-2 0z"/>
<glyph unicode="&#99;" d="M256 230c-47 0-86 38-86 85 0 47 39 86 86 86 47 0 86-39 86-86 0-47-39-85-86-85z m0 156c-39 0-71-32-71-71 0-39 32-71 71-71 39 0 71 32 71 71 0 39-32 71-71 71z m-45-69c-4 0-7 3-7 7 0 5 0 8 1 12 1 3 5 6 9 5 4-1 6-5 5-9-1-3-1-5-1-8 0-4-3-7-7-7z m45-54c-23 0-43 14-50 36-1 3 1 7 5 9 4 1 8-1 9-5 5-16 20-26 36-26 4 0 7-3 7-7 0-4-3-7-7-7z m36-115c-6 0-12 2-17 5l-10 6c-4 3-14 3-18 0l-10-6c-5-3-11-5-17-5-12 0-23 7-29 17l-5 10c-3 5-10 10-16 10l-11-1c-10 0-19 3-25 10-6 6-10 15-9 24l0 11c1 6-4 14-9 16l-10 5c-8 4-14 12-16 21-3 8-1 18 4 26l6 9c3 5 3 14 0 18l-6 10c-5 8-7 17-4 26 2 8 8 16 16 20l10 5c5 3 10 11 9 16l0 11c-1 9 3 18 9 24 6 7 15 10 25 10l11-1c0 0 0 0 0 0 6 0 13 5 16 10l5 10c6 11 17 18 29 18 6 0 12-2 17-6l10-6c4-3 14-3 18 0l10 6c5 4 11 6 17 6 12 0 23-7 29-18l5-10c3-5 10-9 16-9l11 0c10 1 19-3 25-10 6-6 10-15 9-24l0-11c-1-5 4-13 9-16l10-5c8-4 14-12 16-20 3-9 1-18-4-26l-6-10c-3-4-3-13 0-18l6-9c5-8 7-18 4-26-2-9-8-17-16-21l-10-5c-5-2-10-10-9-16l0-11c1-9-3-18-9-24-6-7-14-10-23-10 0 0 0 0 0 0-1 0-1-1-2-1l-11-1c0 0 0 0 0 0-6 0-13-3-16-8l-5-9c-6-11-17-17-29-17z m-36 42c9 0 18-3 25-7l9-6c1-1 2-1 2-1 1 0 3 0 4 2l5 10c7 15 26 25 42 24l12-1c0 0 0 0 0 0 1 0 2 1 3 2 0 0 1 2 1 3l-1 12c-1 16 10 35 25 42l10 5c1 1 2 2 2 3 0 1 0 2-1 3l-6 10c-9 14-9 35 0 49l6 9c1 1 1 3 1 3 0 1-1 2-2 3l-10 5c-15 8-26 26-25 42l1 12c0 1-1 2-1 3-1 0-2 1-3 1l-12-1c-16 0-35 10-42 25l-5 10c-1 2-3 2-4 2 0 0-1 0-2-1l-9-6c-14-8-36-8-50 0l-9 6c-1 1-2 1-2 1-1 0-3 0-4-2l-5-10c-7-15-26-26-42-25l-12 0c0 0 0 0 0 0-1 0-2 0-3-1 0 0-1-1-1-3l1-11c1-16-10-34-25-42l-10-5c-1-1-2-2-2-3 0 0 0-2 1-3l6-9c9-14 9-35 0-49l-6-10c-1-1-1-2-1-3 0-1 1-2 2-3l10-5c15-7 26-26 25-42l-1-11c0-2 1-3 1-3 1-1 2-2 3-2l12 1c16 1 35-10 42-25l5-10c1-2 3-2 4-2 0 0 1 0 2 1l9 6c7 4 16 7 25 7z m-47-146c-3 0-6 1-8 2l-33 24-38-11c-5-1-10 0-14 3-3 4-5 9-4 13l23 128c1 4 4 8 8 10 4 2 8 2 12 0 1-1 2-1 2-1l12 1c16 1 35-10 42-25l5-10c1-2 4-2 6-1 4 2 10 2 15-1 4-4 6-9 5-14l-19-107c-1-4-4-8-9-10-2-1-3-1-5-1z m-38 56c3 0 6-1 8-3l20-14 12 66c-8 2-16 8-20 16l-5 10c-3 5-10 10-16 10l-9-1-17-91 23 6c2 0 3 1 4 1z m101-71c-2 0-4 1-6 1-4 2-7 6-8 11l-24 131c-1 8 3 15 11 16 12 3 26 1 35-5l10-6c1-1 2-1 2-1 1 0 3 0 4 2l5 10c7 15 26 25 42 24l12-1c0 0 0 0 0 0 2 0 3 1 3 3 3 6 9 10 15 9 6 0 12-5 13-11l25-141c1-2 1-2 1-4 0-7-6-13-14-13 0 0 0 0 0 0-2 0-3-1-4 0l-62 16-52-38c-2-1-5-3-8-3z m-7 130l17-91 39 29c3 2 8 3 12 2l47-13-18 99c-2-1-5-2-7-2l-13-1c0 0 0 0 0 0-6 0-13-3-16-8l-5-9c-6-11-17-18-29-18-6 0-12 2-17 6z"/>
<glyph unicode="&#100;" d="M343 20c-16 0-31 6-43 17l-174 174c-12 12-18 28-18 45 0 17 6 33 18 44l174 175c12 11 27 17 43 17 16 0 31-6 43-17 23-24 23-62 0-86l-133-133 133-133c23-24 23-62 0-86-12-11-27-17-43-17z m0 444c-8 0-16-3-23-9l-170-175c-7-6-6-14-6-23 0-1 0-1 0-2 0-9-1-17 6-23l172-175c6-6 13-9 22-9 9 0 16 3 22 9 13 13 12 33 0 46l-143 143c-6 5-6 14-1 20l144 143c12 13 12 33 0 46-6 6-14 9-23 9z"/>
<glyph unicode="&#101;" d="M256 25c-127 0-231 104-231 231 0 127 104 231 231 231 127 0 231-104 231-231 0-127-104-231-231-231z m0 434c-112 0-203-91-203-203 0-112 91-203 203-203 112 0 203 91 203 203 0 112-91 203-203 203z m172-210c-4 0-7 3-7 7 0 74-50 139-121 159-4 1-7 5-5 9 1 3 4 6 8 5 78-22 132-93 132-173 0-4-3-7-7-7z m-162 171c-1 0-1 0-1 0-3 1-6 1-9 1-4 0-7 3-7 7 0 4 3 7 7 7 3 0 7 0 10 0 4-1 7-4 7-8-1-4-4-7-7-7z m-48-229c-4 0-8 1-11 3l-76 47c-6 3-9 9-9 15 0 6 4 12 10 16l74 46c4 2 10 3 14 3 11 0 21-8 21-19l0-92c0-6-4-10-8-14-3-3-10-5-15-5z m2 116c-1 0-4-1-5-2l-75-46c-3-1-4-3-4-3 0-1 1-2 3-3l75-47c1 0 3-1 4-1 1 0 4 0 5 1 1 1 4 3 4 4l0 92c0 4-5 5-7 5z m106-116c-3 0-7 1-11 3l-73 47c-6 3-10 9-10 15 0 6 4 12 10 16l76 46c14 8 30-1 30-16l0-92c0-5-4-10-7-13-3-4-10-6-15-6z m3 116c-1 0-3 0-5-2l-74-46c-2-1-3-2-3-3 0-1 0-2 3-3l73-47c1-1 3-1 3-1 0 0 0 0 0 0 1 0 4 1 4 1 1 1 3 2 3 4l0 92c0 2-2 5-4 5z"/>
<glyph unicode="&#102;" d="M381 21l-250 0c-27 0-49 22-49 50 0 0 0 0 0 0l14 264c0 27 22 49 49 49l222 0c27 0 49-22 49-49l14-264c0 0 0 0 0 0 0-28-22-50-49-50z m-271 49c0-11 10-20 21-20l250 0c11 0 21 9 21 20l-14 264c0 0 0 0 0 1 0 11-10 21-21 21l-222 0c-11 0-21-10-21-21 0-1 0-1 0-1z m43 136c-1 0-1 0-1 0-4 0-7 5-6 9l0 5c0 4 3 7 7 7 4 0 7-3 7-7l0-6c0-4-4-8-7-8z m-7-128c0 0 0 0-1 0-4 0-7 4-6 8l5 107c1 4 4 7 8 6 4 0 7-3 7-7l-6-107c0-4-3-7-7-7z m173 278c-8 0-14 6-14 14l0 77c0 10-9 15-22 15l-51 0c-5 0-20-1-20-15l0-77c0-8-6-14-14-14-8 0-14 6-14 14l0 77c0 26 18 44 48 44l51 0c28 0 50-18 50-44l0-77c0-8-6-14-14-14z"/>
<glyph unicode="&#103;" d="M256 27c-61 0-119 23-162 67-90 89-90 235 0 324 43 44 101 67 162 67 61 0 119-23 162-67 44-43 67-101 67-162 0-61-23-119-67-162-43-44-101-67-162-67z m0 430c-54 0-104-21-142-59-79-78-79-206 0-284 38-38 88-59 142-59 54 0 104 21 142 59 38 38 59 88 59 142 0 54-21 104-59 142-38 38-88 59-142 59z m-198-180c-1 0-1 0-1 0-6 1-12 2-17 2-4 1-7 4-7 8 1 4 4 7 8 6 6 0 12-1 18-2 4-1 7-4 6-8-1-4-4-6-7-6z m217-189c-3 0-5 2-6 5-4 12-8 23-14 34-1 4 0 8 4 10 3 1 7 0 9-4 6-11 10-24 14-36 1-4-1-8-5-9 0 0-1 0-2 0z m-32 68c-2 0-4 2-6 4-6 10-14 20-22 29-3 3-2 8 1 10 3 3 7 2 10-1 8-9 16-20 23-31 2-3 1-7-2-9-1-1-2-2-4-2z m-49 57c-2 0-4 1-5 2-9 8-19 16-30 22-3 3-4 7-2 10 2 4 7 5 10 2 11-7 21-15 31-23 3-3 3-7 1-10-1-2-3-3-5-3z m-64 42c-1 0-2 0-3 0-11 6-23 10-34 14-4 1-6 5-5 9 1 3 5 5 9 4 12-4 24-8 36-14 4-1 5-6 4-9-2-3-4-4-7-4z m156-222c-3 0-6 3-7 7 0 5-1 11-2 17-1 4 2 7 6 8 4 1 7-2 8-6 1-6 2-12 2-18 1-4-2-7-6-8 0 0 0 0-1 0z m-62 410c-3 0-6 3-7 6-1 6-2 12-2 18-1 4 2 8 6 8 4 0 8-3 8-6 0-6 1-12 2-18 1-3-2-7-6-8 0 0-1 0-1 0z m189-217c-1 0-1 0-2 0-12 4-25 8-36 14-4 2-5 6-4 9 2 4 6 6 10 4 11-5 23-10 34-13 4-2 6-6 5-9-1-3-4-5-7-5z m-68 32c-2 0-3 0-4 1-11 7-21 15-31 23-3 3-4 7-1 10 3 3 7 4 10 1 9-8 19-15 30-22 3-2 4-7 2-10-2-2-4-3-6-3z m-57 49c-2 0-4 1-6 3-8 10-16 20-23 31-2 3-1 8 2 10 3 2 8 1 10-2 6-11 14-20 22-30 3-3 2-7-1-10-1-1-3-2-4-2z m-42 64c-2 0-5 1-6 4-6 12-10 24-14 36-1 4 1 8 5 9 3 1 7-1 8-5 4-11 9-23 14-34 1-4 0-8-4-9-1-1-2-1-3-1z m222-156c0 0-1 0-1 0-6 0-12 1-18 2-4 1-6 4-6 8 1 4 4 7 8 6 6-1 12-2 18-2 3 0 6-4 6-8 0-3-4-6-7-6z"/>
<glyph unicode="&#104;" d="M187 21c0 0 0 0 0 0-16 0-30 11-49 29l-90 91c-37 36-45 58-3 99l205 199c6 5 15 5 20 0 6-6 6-15 0-21l-205-198c-27-26-26-30 3-59l90-91c11-10 22-21 29-21 7 0 19 10 29 20l205 199c6 5 15 5 20 0 6-6 6-15 0-21l-205-198c-18-18-32-28-49-28z m61 46c-4 0-8 2-10 4-6 6-6 15 0 21l205 198c27 26 26 30-3 59l-90 91c-29 28-30 28-58 1l-205-199c-6-5-15-5-20 0-6 6-6 15 0 21l205 198c39 38 59 38 98-1l90-91c19-18 30-32 31-49 1-18-10-33-28-50l-205-199c-3-3-7-4-10-4z m203 287c-3 0-7 1-10 4-5 6-5 15 0 20l3 4c29 29 30 34 3 61-27 27-35 27-63-1l-3-3c-6-6-15-6-20 0-6 5-6 14 0 20l3 3c39 39 65 39 104 1 41-42 32-66-3-102l-4-3c-2-3-6-4-10-4z m-316-117c-2 0-4 1-5 2-3 3-3 8 0 10l5 5c3 3 7 3 10 0 3-2 3-7 0-10l-5-5c-1-1-3-2-5-2z m30 30c-2 0-4 1-5 3-3 2-3 7 0 10l48 45c3 2 7 2 10-1 3-3 2-7 0-10l-48-45c-1-1-3-2-5-2z m164 53c-2 0-4 1-5 2-3 3-3 8 0 10l44 42c3 3 8 3 10 0 3-3 3-8 0-10l-44-42c-2-1-3-2-5-2z m43-1c-2 0-4 1-5 2l-42 44c-3 3-3 8 0 10 3 3 8 3 10 0l42-44c3-3 3-8 0-10-2-2-3-2-5-2z m-208-208c-2 0-3 1-5 3l-42 44c-2 3-2 7 1 10 3 2 7 2 10-1l41-44c3-3 3-7 0-10-1-1-3-2-5-2z"/>
<glyph unicode="&#105;" d="M268 18l-28 0c-59 0-66 21-66 72l0 6c0 8 7 14 14 14 8 0 15-6 15-14l0-6c0-41 0-44 37-44l28 0c40 0 48 6 48 44l0 6c0 8 7 14 15 14 8 0 14-6 14-14l0-6c0-55-21-72-77-72z m219 122c0-32-26-58-59-58l-344 0c-33 0-59 26-59 58l0 4c0 32 26 59 59 59l344 0c33 0 59-27 59-59z m-28 4c0 17-14 30-31 30l-344 0c-17 0-31-13-31-30l0-4c0-16 14-30 31-30l344 0c17 0 31 14 31 30z m-36 30c-8 0-14 7-14 14l0 132c0 80-68 146-147 146l-10 0c-80 0-142-66-142-146l0-132c0-7-6-14-14-14-8 0-14 7-14 14l0 132c0 96 75 174 170 174l10 0c95 0 175-78 175-174l0-132c0-7-6-14-14-14z m-45 121c-4 0-7 3-7 7 0 51-30 96-76 116-4 2-5 6-4 10 2 3 6 5 9 3 52-22 85-73 85-129 0-4-3-7-7-7z m-121 133c0 0-1 0-1 0-4 1-8 1-12 1-4 0-7 3-7 7 0 4 3 7 7 7 5 0 9 0 14-1 3 0 6-4 6-7 0-4-4-7-7-7z"/>
<glyph unicode="&#106;" d="M491 67c0-27-22-49-50-49l-299 0c-27 0-50 22-50 49l0 314c0 27 23 49 50 49l299 0c28 0 50-22 50-49l0-314z m-29 314c0 11-9 21-21 21l-299 0c-12 0-21-10-21-21l0-314c0-11 9-21 21-21l299 0c12 0 21 10 21 21l0 314z m-426-164c-8 0-15 6-15 14l0 214c0 27 20 49 47 49l235 0c8 0 14-6 14-14 0-8-6-14-14-14l-235 0c-12 0-18-10-18-21l0-214c0-8-7-14-14-14z m361-142l-101 0c-4 0-7 3-7 7 0 4 3 7 7 7l101 0c4 0 15 0 15 20l0 30c0 4 4 7 8 7 3 0 7-3 7-7l0-30c0-31-22-34-30-34z m23 78c-4 0-8 3-8 7l0 7c0 4 4 7 8 7 3 0 7-3 7-7l0-7c0-4-4-7-7-7z"/>
<glyph unicode="&#107;" d="M480 316c0-27-22-49-49-49l-357 0c-27 0-49 22-49 49l0 122c0 27 22 49 49 49l357 0c27 0 49-22 49-49l0-122z m-28 122c0 11-10 21-21 21l-357 0c-11 0-21-10-21-21l0-122c0-12 10-21 21-21l357 0c11 0 21 9 21 21l0 122z m-370-65c-4 0-7 4-7 7l0 13c0 18 9 37 28 37l47 0c4 0 7-3 7-7 0-4-3-7-7-7l-47 0c-11 0-14-12-14-23l0-13c0-3-3-7-7-7z m-6-24c-2 0-4 1-5 2-1 1-2 3-2 5 0 2 1 4 2 5 3 3 7 3 10 0 1-1 2-3 2-5 0-2-1-4-2-5-1-1-3-2-5-2z m255-275c0-27-22-49-50-49l-207 0c-27 0-49 22-49 49l0 122c0 27 22 49 49 49l207 0c28 0 50-22 50-49l0-122z m-29 122c0 12-9 21-21 21l-207 0c-11 0-21-9-21-21l0-122c0-11 10-21 21-21l207 0c12 0 21 10 21 21l0 122z m185-122c0-27-22-49-49-49l-37 0c-27 0-49 22-49 49l0 122c0 27 22 49 49 49l37 0c27 0 49-22 49-49z m-28 122c0 12-10 21-21 21l-37 0c-11 0-21-9-21-21l0-122c0-11 10-21 21-21l37 0c11 0 21 10 21 21z"/>
<glyph unicode="&#108;" d="M248 25c-8 0-14 6-14 14l0 434c0 7 6 14 14 14 8 0 14-7 14-14l0-434c0-8-6-14-14-14z m-158 111c-5 0-10 3-12 7-5 7-3 15 4 20l314 200-156 98c-6 4-8 12-4 19 4 7 13 9 20 5l174-110c4-2 7-7 7-12 0-5-3-9-7-12l-333-212c-2-2-5-3-7-3z m254 220c-2 0-3 1-4 1l-12 8c-3 2-4 6-2 9 2 4 7 5 10 3l12-8c3-2 4-6 2-9-2-2-4-4-6-4z m-27 17c-1 0-3 0-4 1l-35 22c-3 2-4 6-2 10 2 3 6 4 10 2l35-22c3-2 4-6 2-10-1-2-4-3-6-3z m-69-348c-5 0-9 2-12 7-4 6-2 15 4 19l156 100-314 200c-7 4-9 13-4 20 4 6 13 8 19 4l333-213c4-2 7-7 7-12 0-4-3-9-7-12l-174-111c-3-1-5-2-8-2z"/>
<glyph unicode="&#109;" d="M487 78c0-27-22-50-49-50l-364 0c-27 0-49 23-49 50l0 356c0 27 22 50 49 50l364 0c27 0 49-23 49-50l0-356z m-28 356c0 12-10 21-21 21l-364 0c-11 0-21-9-21-21l0-356c0-12 10-21 21-21l364 0c11 0 21 9 21 21l0 356z m11-57l-434 0c-4 0-7 3-7 7 0 4 3 7 7 7l434 0c4 0 7-3 7-7 0-4-3-7-7-7z m-384 35l-7 0c-4 0-7 4-7 8 0 3 3 7 7 7l7 0c4 0 7-4 7-7 0-4-3-8-7-8z m50 0l-7 0c-4 0-7 4-7 8 0 3 3 7 7 7l7 0c4 0 7-4 7-7 0-4-3-8-7-8z m50 0l-7 0c-4 0-7 4-7 8 0 3 3 7 7 7l7 0c4 0 7-4 7-7 0-4-3-8-7-8z m-6-287c-2 0-4 0-6 2l-65 81c-2 2-2 6 0 9l40 49c3 3 7 4 10 1 3-2 4-7 1-10l-36-45 61-76c3-3 2-7-1-10-1-1-3-1-4-1z m-7 152c-1 0-3 1-4 2-3 3-4 7-1 10l6 8c3 3 7 4 10 1 3-2 4-7 1-10l-6-8c-2-2-4-3-6-3z m161-152c-2 0-3 0-5 1-3 3-3 7-1 10l62 76-62 76c-2 3-2 8 1 10 3 3 8 2 10-1l66-80c2-3 2-7 0-9l-66-81c-1-2-3-2-5-2z m-107 37c-1 0-3 1-4 2-3 2-4 7-1 10l65 80c2 3 7 4 10 1 3-2 3-7 1-10l-65-80c-2-2-4-3-6-3z"/>
<glyph unicode="&#110;" d="M243 181c-1 0 0 0-1 0-47 9-69 40-69 96l0 41c0 4 3 7 7 7 4 0 8-3 8-7l0-41c0-49 17-75 57-82 4-1 6-4 5-8 0-4-4-6-7-6z m28-14l-7 0c-4 0-7 3-7 7 0 4 3 7 7 7l7 0c4 0 7-3 7-7 0-4-3-7-7-7z m-4-57l-6 0c-78 0-145 73-145 154l0 210c0 8 5 13 13 13l270 0c8 0 16-5 16-13l0-210c0-81-70-154-148-154z m-122 349l0-195c0-65 54-125 116-125l6 0c62 0 120 60 120 125l0 195z m219-434l-207 0c-8 0-14 6-14 14 0 8 6 14 14 14l207 0c7 0 14-6 14-14 0-8-7-14-14-14z m-105 1c-8 0-15 7-15 15l0 85c0 8 7 14 15 14 7 0 14-6 14-14l0-85c0-8-7-15-14-15z m141 211c-8 0-14 7-14 14 0 8 6 15 14 15 28 0 61 74 61 122 0 7-1 17-6 21-5 6-21 5-38 5-5 0-11-1-17-1-8 0-14 7-14 15 0 7 6 14 14 14 6 0 11 0 16 0 23 1 45 2 59-13 10-9 14-22 14-41 0-52-35-151-89-151z m-288 0c-54 0-89 99-89 151 0 19 4 32 14 41 14 15 36 14 59 13 5 0 10 0 16 0 8 0 14-7 14-14 0-8-6-15-14-15-6 0-12 1-17 1-17 0-33 1-38-5-5-4-6-14-6-21 0-48 33-122 61-122 8 0 14-7 14-15 0-7-6-14-14-14z"/>
<glyph unicode="&#111;" d="M487 131c0-27-22-49-49-49l-364 0c-27 0-49 22-49 49l0 250c0 27 22 49 49 49l364 0c27 0 49-22 49-49l0-250z m-28 250c0 11-10 21-21 21l-364 0c-11 0-21-10-21-21l0-250c0-11 10-21 21-21l364 0c11 0 21 10 21 21l0 250z m18-36l-433 0c-4 0-8 3-8 7 0 4 4 7 8 7l433 0c4 0 7-3 7-7 0-4-3-7-7-7z m0-78l-433 0c-4 0-8 3-8 7 0 4 4 7 8 7l433 0c4 0 7-3 7-7 0-4-3-7-7-7z m-377-107l-28 0c-4 0-7 3-7 7 0 4 3 7 7 7l28 0c4 0 8-3 8-7 0-4-4-7-8-7z m79 0l-50 0c-4 0-7 3-7 7 0 4 3 7 7 7l50 0c4 0 7-3 7-7 0-4-3-7-7-7z m42 0l-14 0c-4 0-7 3-7 7 0 4 3 7 7 7l14 0c4 0 7-3 7-7 0-4-3-7-7-7z"/>
<glyph unicode="&#112;" d="M393 21c0 0 0 0 0 0l-277 0c-5 0-9 2-11 5-3 4-4 9-3 13 4 15 96 360 112 406 7 20 19 46 40 46 21 0 32-26 39-45 17-48 105-374 113-405 1-2 1-4 1-6 0-8-6-14-14-14z m-259 28l240 0c-19 73-93 345-108 388-5 16-10 22-12 25-2-3-7-10-13-26-14-39-87-313-107-387z m307-28l-370 0c-8 0-14 6-14 14 0 8 6 14 14 14l370 0c8 0 14-6 14-14 0-8-6-14-14-14z m-78 92l-228 0c-4 0-7 4-7 7 0 4 3 8 7 8l228 0c4 0 7-4 7-8 0-3-3-7-7-7z m-22 107l-49 0c-4 0-8 3-8 7 0 4 4 7 8 7l49 0c4 0 7-3 7-7 0-4-3-7-7-7z m-78 0l-99 0c-4 0-8 3-8 7 0 4 4 7 8 7l99 0c4 0 7-3 7-7 0-4-3-7-7-7z m50 107l-114 0c-4 0-7 3-7 7 0 4 3 7 7 7l114 0c4 0 7-3 7-7 0-4-3-7-7-7z"/>
<glyph unicode="&#113;" d="M448 78c0-27-22-50-49-50l-286 0c-27 0-49 23-49 50l0 356c0 27 22 50 49 50l286 0c27 0 49-23 49-50z m-28 356c0 12-10 21-21 21l-286 0c-11 0-21-9-21-21l0-356c0-12 10-21 21-21l286 0c11 0 21 9 21 21z m-256-398c-4 0-8 3-8 7l0 426c0 4 4 7 8 7 3 0 7-3 7-7l0-426c0-4-4-7-7-7z m202 35l-116 0c-4 0-7 3-7 7 0 4 3 7 7 7l116 0c12 0 25 14 25 35l0 22c0 4 3 7 7 7 4 0 7-3 7-7l0-22c0-30-19-49-39-49z m27 100c-2 0-4 1-5 2-1 1-2 3-2 5 0 2 1 4 2 5 2 3 7 3 10 0 1-1 2-3 2-5 0-2-1-4-2-5-1-1-3-2-5-2z m-45 153c-1 0-2 0-3 1l-39 19-40-19c-2-1-5-1-7 0-2 1-3 4-3 6l0 138c0 4 3 10 7 10l85 0c4 0 8-6 8-10l0-138c0-2-2-5-4-6-1-1-2-1-4-1z m-42 35c1 0 2-1 3-1l32-16 0 122-71 0 0-122 33 16c1 0 2 1 3 1z"/>
<glyph unicode="&#114;" d="M171 11c-19 0-36 7-49 20l-107 98c-13 13-20 31-20 50 0 18 7 36 20 49 13 13 31 20 49 20 19 0 36-7 49-20l58-51 226 302c1 1 1 1 2 2 13 13 30 20 49 20 18 0 36-7 49-20 27-27 27-71 1-98l-273-350c0-1 0-1-1-2-13-13-32-21-51-20-1 0-2 0-2 0z m-107 209c-11 0-21-5-29-12-8-8-12-19-12-29 0-11 4-22 12-30l106-97c8-8 19-14 30-14l1-1c1 0 1 0 1 0l2 1c11 0 21 5 29 12l272 351c0 0 0 1 1 1 16 16 16 42 0 58-8 8-18 13-29 13-11 0-21-4-29-12l-235-313c-2-3-6-5-10-5-4-1-7 0-10 3l-70 61c0 0 0 0-1 1-7 7-18 12-29 12z"/>
<glyph unicode="&#115;" d="M256 23c-129 0-233 104-233 233 0 129 104 233 233 233 129 0 233-104 233-233 0-129-104-233-233-233z m0 438c-113 0-205-92-205-205 0-113 92-205 205-205 113 0 205 92 205 205 0 113-92 205-205 205z m-5-19c-8 0-14 6-14 14l0 14c0 8 6 15 14 15 8 0 14-7 14-15l0-14c0-8-6-14-14-14z m0-413c-8 0-14 7-14 15l0 14c0 8 6 14 14 14 8 0 14-6 14-14l0-14c0-8-6-15-14-15z m218 209l-21 0c-8 0-14 7-14 15 0 7 6 14 14 14l21 0c8 0 15-7 15-14 0-8-7-15-15-15z m-412 0l-14 0c-8 0-15 7-15 15 0 7 7 14 15 14l14 0c8 0 14-7 14-14 0-8-6-15-14-15z m130-59c-2 0-3 1-5 2-2 2-2 5-1 7l36 104c1 2 2 4 4 4l101 37c3 0 6 0 8-2 2-2 2-5 1-7l-10-29c-1-4-5-6-9-5-3 2-5 6-4 9l5 15-84-30-30-86 84 30 4 11c1 4 5 6 9 5 4-1 6-6 4-9l-5-15c-1-2-2-4-4-4l-101-37c-1 0-2 0-3 0z m115 74c-1 0-2 1-2 1-4 1-6 5-5 9l6 16c1 4 5 6 9 5 4-2 6-6 4-9l-5-17c-1-3-4-5-7-5z"/>
<glyph unicode="&#116;" d="M385 80c-8 0-15 6-15 14 0 8 7 14 15 14 39 0 74 68 74 108 0 31-19 36-74 36-8 0-15 6-15 14 0 8 7 14 15 14 43 0 102 0 102-64 0-53-44-136-102-136z m-64-56l-228 0c-58 0-68 28-68 79l0 201c0 8 6 12 13 12l342 0c8 0 15-4 15-12l0-201c0-57-20-79-74-79z m-268 264l0-185c0-43 4-50 40-50l228 0c38 0 45 9 45 50l0 185z m26-105c-2 0-4 0-5 2-1 1-2 3-2 5 0 2 1 4 2 5 2 3 7 3 10 0 1-1 2-3 2-5 0-2-1-4-2-5-1-1-3-2-5-2z m48-106c-40 0-52 13-52 53l0 24c0 4 3 8 7 8 4 0 7-4 7-8l0-24c0-33 5-38 38-38 4 0 7-4 7-8 0-3-3-7-7-7z m31 262c-4 0-8 2-11 5-5 6-4 15 2 20 11 10 18 19 18 26 0 2 0 5-6 10-14 14-45 41-16 82 4 6 13 7 20 3 6-5 7-14 3-20-12-16-9-24 12-44 13-11 16-24 16-32-1-15-10-32-29-47-2-2-5-3-9-3z m86 0c-4 0-8 2-11 5-5 6-4 15 2 20 11 10 17 19 18 26 0 2-1 5-6 10-15 14-46 41-17 82 5 6 14 7 20 3 6-5 8-14 3-20-11-16-9-24 13-44 13-11 15-24 15-32 0-15-10-32-28-47-3-2-6-3-9-3z"/>
<glyph unicode="&#117;" d="M306 61l-178 0c-63 0-114 52-114 116 0 39 21 77 54 98 3 32 28 59 61 63 31 69 99 113 176 113 106 0 193-87 193-194 0-104-83-190-185-194-3-1-6-2-7-2z m-169 249c-22 0-41-19-41-42l0-1c0-6-3-11-8-13-27-15-45-45-45-77 0-48 38-87 85-87l172 0c3 1 6 1 7 1 89 1 162 76 162 166 0 91-74 165-164 165-68 0-128-40-153-103-3-6-8-10-14-9 0 0-1 0-1 0z m296-50c-4 0-8 5-8 9 0 3 0 8 0 11-1 4 2 8 6 8 4 1 8-2 8-6 0-4 1-9 1-13 0-4-3-9-7-9 0 0 0 0 0 0z m-14 56c-3 0-5 1-6 4-19 33-54 54-92 54-4 0-7 3-7 7 0 4 3 7 7 7 43 0 83-23 104-61 2-4 1-8-3-10-1-1-2-1-3-1z"/>
<glyph unicode="&#118;" d="M256 27c-127 0-229 102-229 229 0 127 102 229 229 229 127 0 229-102 229-229 0-127-102-229-229-229z m0 430c-111 0-201-90-201-201 0-111 90-201 201-201 111 0 201 90 201 201 0 111-90 201-201 201z m0-254c-29 0-53 24-53 53 0 29 24 53 53 53 29 0 53-24 53-53 0-29-24-53-53-53z m0 78c-14 0-25-11-25-25 0-14 11-25 25-25 14 0 25 11 25 25 0 14-11 25-25 25z m-166-41c-4 0-7 3-7 7 0 3 0 6 0 9 0 4 3 7 7 7 4 0 7-3 7-7 0-3 0-6 0-8 0-4-3-8-7-8 0 0 0 0 0 0z m84-136c-1 0-2 0-3 1-46 26-77 70-86 121-1 4 2 8 6 9 4 0 7-2 8-6 8-47 37-88 79-112 3-1 4-6 2-9-1-3-3-4-6-4z m-10 58c-2 0-4 1-5 2-21 22-33 50-33 80 0 4 3 8 7 8 4 0 7-4 7-8 0-26 11-51 29-70 3-2 3-7 0-10-1-1-3-2-5-2z m24-18c-2 0-3 0-4 1-2 1-5 3-7 4-3 2-4 7-2 10 2 3 7 4 10 2 2-1 4-2 6-4 3-1 5-6 3-9-2-3-4-4-6-4z m9 42c-1 0-2 0-3 1-18 10-29 29-29 49 0 4 3 8 7 8 4 0 7-4 7-8 0-15 8-29 22-37 3-2 4-6 2-10-1-2-3-3-6-3z m221 51c0 0 0 0-1 0-3 0-6 4-6 8 7 57-18 113-64 147-3 2-4 7-1 10 2 3 7 4 10 1 50-36 77-98 69-160 0-3-3-6-7-6z m-40 13c0 0 0 0-1 0-4 0-6 4-6 8 4 35-11 71-40 92-3 2-4 7-2 10 3 3 7 4 10 2 33-25 51-65 46-106 0-4-3-6-7-6z m-39 17c0 0-1 0-1 0-4 0-7 4-6 8 2 15-5 30-17 39-4 3-4 7-2 10 2 4 7 4 10 2 17-12 25-33 23-53 0-4-3-6-7-6z"/>
<glyph unicode="&#119;" d="M487 131c0-27-22-49-49-49l-364 0c-27 0-49 22-49 49l0 250c0 27 22 49 49 49l364 0c27 0 49-22 49-49l0-250z m-28 250c0 11-10 21-21 21l-364 0c-11 0-21-10-21-21l0-250c0-11 10-21 21-21l364 0c11 0 21 10 21 21l0 250z m-64-278c-4 0-7 3-7 7l0 19c0 16-14 31-29 31l-207 0c-15 0-28-15-28-31l0-19c0-4-3-7-7-7-4 0-7 3-7 7l0 19c0 24 20 45 42 45l207 0c23 0 43-21 43-45l0-19c0-4-3-7-7-7z m-54 107l-170 0c-42 0-75 31-75 70 0 4 3 7 7 7 4 0 7-3 7-7 0-31 27-56 61-56l170 0c34 0 61 23 61 54l0 6c0 32-29 61-61 61l-170 0c-15 0-28-7-37-13-3-3-7-2-10 1-2 3-1 8 2 10 15 11 30 16 45 16l170 0c40 0 75-35 75-75l0-6c0-39-33-68-75-68z m-235 87c-1 0-1 0-2 0-4 1-6 5-5 9 2 3 3 6 4 9 2 4 6 5 10 3 3-2 5-6 3-9-1-3-2-5-3-8-1-3-4-4-7-4z m75-61c-23 0-43 20-43 43 0 24 20 43 43 43 24 0 44-19 44-43 0-23-20-43-44-43z m0 72c-15 0-28-13-28-29 0-16 13-29 28-29 16 0 29 13 29 29 0 16-13 29-29 29z m157-72c-24 0-43 20-43 43 0 24 19 43 43 43 24 0 43-19 43-43 0-23-19-43-43-43z m0 72c-16 0-29-13-29-29 0-16 13-29 29-29 16 0 29 13 29 29 0 16-13 29-29 29z"/>
<glyph unicode="&#120;" d="M257 130c-56 0-101 45-101 101 0 56 45 102 101 102 56 0 101-46 101-102 0-56-45-101-101-101z m0 188c-48 0-87-39-87-87 0-48 39-87 87-87 48 0 87 39 87 87 0 48-39 87-87 87z m-52-66c-2 0-3 0-4 1-3 2-4 6-2 9 14 24 39 38 66 38 4 0 7-3 7-7 0-4-3-7-7-7-22 0-43-12-54-31-2-2-4-3-6-3z m-10-34c-4 0-7 3-7 7 0 6 0 10 2 15 1 4 4 7 8 6 4-1 7-5 6-9-2-5-2-7-2-12 0-4-3-7-7-7z m244-161l-364 0c-28 0-50 23-50 49l0 222c0 26 21 49 50 49l34 0 25 49c0 1 1 1 1 2 17 25 34 27 50 27l10 0 120 0c26 0 46-9 59-27 1 0 1-1 1-1l29-50 35 0c26 0 48-21 48-49l0-222c0-28-22-49-48-49z m-364 291c-11 0-22-9-22-20l0-222c0-10 10-21 22-21l364 0c12 0 20 11 20 21l0 222c0 10-8 20-20 20l-43 0c-6 0-10 3-13 7l-32 57c-8 10-19 14-36 14l-130 0c-11 0-17 0-26-14l-28-56c-2-5-7-8-13-8z m395-78l-128 0c-4 0-7 3-7 7 0 4 3 7 7 7l128 0c4 0 7-3 7-7 0-4-3-7-7-7z m-298 0l-136 0c-4 0-7 3-7 7 0 4 3 7 7 7l136 0c3 0 7-3 7-7 0-4-4-7-7-7z m199-99l-36 0c-4 0-7 3-7 7 0 4 3 7 7 7l36 0c4 0 7-3 7-7 0-4-3-7-7-7z m28 0l-7 0c-4 0-7 3-7 7 0 4 3 7 7 7l7 0c4 0 7-3 7-7 0-4-3-7-7-7z m64 0l-43 0c-4 0-7 3-7 7 0 4 3 7 7 7l43 0c4 0 7-3 7-7 0-4-3-7-7-7z m-291 0l-136 0c-4 0-7 3-7 7 0 4 3 7 7 7l136 0c3 0 7-3 7-7 0-4-4-7-7-7z"/>
<glyph unicode="&#121;" d="M484 71c0-28-23-50-50-50l-356 0c-27 0-50 22-50 50l0 313c0 28 23 50 50 50l356 0c27 0 50-22 50-50z m-29 313c0 12-9 21-21 21l-356 0c-12 0-21-9-21-21l0-313c0-12 9-21 21-21l356 0c12 0 21 9 21 21z m-49-313l-45 0c-4 0-7 3-7 7 0 4 3 7 7 7l45 0c7 0 12 2 12 17 0 4 4 7 8 7 4 0 8-3 8-7l0-2c0-1-1-1-1-2-1-18-11-27-27-27z m20 54c-2 0-4 1-5 2-2 1-2 3-2 5 0 2 0 4 2 5 2 3 7 3 10 0 1-1 2-3 2-5 0-2-1-4-2-5-2-1-3-2-5-2z m-292 110l-7 0c-4 0-8 3-8 7 0 4 4 7 8 7l7 0c4 0 7-3 7-7 0-4-3-7-7-7z m49 0l-7 0c-4 0-7 3-7 7 0 4 3 7 7 7l7 0c4 0 8-3 8-7 0-4-4-7-8-7z m50 0l-7 0c-4 0-7 3-7 7 0 4 3 7 7 7l7 0c4 0 7-3 7-7 0-4-3-7-7-7z m43 0l-7 0c-4 0-7 3-7 7 0 4 3 7 7 7l7 0c4 0 7-3 7-7 0-4-3-7-7-7z m50 0l-7 0c-4 0-8 3-8 7 0 4 4 7 8 7l7 0c4 0 7-3 7-7 0-4-3-7-7-7z m49 0l-7 0c-4 0-7 3-7 7 0 4 3 7 7 7l7 0c4 0 8-3 8-7 0-4-4-7-8-7z m-241-43l-7 0c-4 0-8 3-8 7 0 4 4 7 8 7l7 0c4 0 7-3 7-7 0-4-3-7-7-7z m49 0l-7 0c-4 0-7 3-7 7 0 4 3 7 7 7l7 0c4 0 8-3 8-7 0-4-4-7-8-7z m50 0l-7 0c-4 0-7 3-7 7 0 4 3 7 7 7l7 0c4 0 7-3 7-7 0-4-3-7-7-7z m43 0l-7 0c-4 0-7 3-7 7 0 4 3 7 7 7l7 0c4 0 7-3 7-7 0-4-3-7-7-7z m50 0l-7 0c-4 0-8 3-8 7 0 4 4 7 8 7l7 0c4 0 7-3 7-7 0-4-3-7-7-7z m49 0l-7 0c-4 0-7 3-7 7 0 4 3 7 7 7l7 0c4 0 8-3 8-7 0-4-4-7-8-7z m-241-85l-7 0c-4 0-8 3-8 7 0 4 4 7 8 7l7 0c4 0 7-3 7-7 0-4-3-7-7-7z m49 0l-7 0c-4 0-7 3-7 7 0 4 3 7 7 7l7 0c4 0 8-3 8-7 0-4-4-7-8-7z m50 0l-7 0c-4 0-7 3-7 7 0 4 3 7 7 7l7 0c4 0 7-3 7-7 0-4-3-7-7-7z m43 0l-7 0c-4 0-7 3-7 7 0 4 3 7 7 7l7 0c4 0 7-3 7-7 0-4-3-7-7-7z m-142 42l-7 0c-4 0-8 4-8 7 0 4 4 8 8 8l7 0c4 0 7-4 7-8 0-3-3-7-7-7z m49 0l-7 0c-4 0-7 4-7 7 0 4 3 8 7 8l7 0c4 0 8-4 8-8 0-3-4-7-8-7z m50 0l-7 0c-4 0-7 4-7 7 0 4 3 8 7 8l7 0c4 0 7-4 7-8 0-3-3-7-7-7z m43 0l-7 0c-4 0-7 4-7 7 0 4 3 8 7 8l7 0c4 0 7-4 7-8 0-3-3-7-7-7z m50 0l-7 0c-4 0-8 4-8 7 0 4 4 8 8 8l7 0c4 0 7-4 7-8 0-3-3-7-7-7z m49 0l-7 0c-4 0-7 4-7 7 0 4 3 8 7 8l7 0c4 0 8-4 8-8 0-3-4-7-8-7z m-247 207c-8 0-14 6-14 14l0 106c0 8 6 15 14 15 8 0 14-7 14-15l0-106c0-8-6-14-14-14z m249 0c-8 0-14 6-14 14l0 106c0 8 6 15 14 15 8 0 14-7 14-15l0-106c0-8-6-14-14-14z m91-57l-427 0c-4 0-7 3-7 7 0 4 3 7 7 7l427 0c4 0 7-3 7-7 0-4-3-7-7-7z"/>
<glyph unicode="&#122;" d="M359 401c-3 0-6 2-7 5-1 4 1 8 5 9l17 4c3 1 7-1 8-5 1-4-1-7-5-8l-16-5c-1 0-1 0-2 0z m-149-40c-3 0-6 2-6 5-1 4 1 8 5 9l117 32c4 1 8-2 9-5 1-4-1-8-5-9l-118-32c0 0-1 0-2 0z m-91-337c-10 0-18 5-27 13l-54 55c-27 27-7 47 3 57 65 63 97 92 111 107l-60 38c-21 12-31 32-29 54 3 28 26 52 56 60l284 76c31 8 58 1 73-18 12-16 15-38 8-64l-76-283c-9-37-42-53-68-53-21 0-39 10-46 27l-31 59c-15-15-47-46-114-111-7-8-17-17-30-17z m-66 95c0 0 0-3 5-7l54-55c5-4 7-4 7-4 0 0 3 0 10 8 34 33 123 120 128 125 3 3 7 5 11 4 5 0 9-3 12-7l40-77c0-1 0-1 0-1 4-10 17-11 20-11 16 0 35 10 41 32l76 284c4 16 3 30-4 39-6 8-17 10-25 10-5 0-11-1-18-2l-283-76c-23-6-34-22-36-36-1-11 4-20 15-26 0 0 1 0 1 0l76-49c4-3 6-7 7-11 0-5-2-9-5-12-3-3-91-86-124-119-7-6-8-9-8-9z"/>
<glyph unicode="&#65;" d="M382 72c-16 0-32 7-43 18l-83 83-83-83c-11-11-27-18-43-18-16 0-31 7-42 18-12 11-18 27-18 43 0 16 6 31 18 43l83 83-78 77c-12 12-18 27-18 43 0 16 6 32 18 43 11 11 26 18 42 18 16 0 32-7 43-18l78-78 78 78c11 11 27 18 43 18 16 0 31-7 42-18 12-11 18-27 18-43 0-16-6-31-18-43l-78-77 83-83c12-12 18-27 18-43 0-16-6-32-18-43-11-11-26-18-42-18z m-126 135c4 0 7-1 10-4l93-93c6-6 14-9 23-9 8 0 16 3 22 9 6 6 10 14 10 23 0 8-4 16-10 22l-93 93c-5 6-5 15 0 21l88 88c6 6 10 14 10 22 0 9-4 17-10 23-6 6-14 9-22 9-9 0-17-3-23-9l-88-88c-5-6-14-6-20 0l-88 88c-6 6-14 9-23 9-8 0-16-3-22-9-6-6-10-14-10-23 0-8 4-16 10-22l88-88c5-6 5-15 0-21l-93-93c-6-6-10-14-10-22 0-9 4-17 10-23 6-6 14-9 22-9 9 0 17 3 23 9l93 93c3 3 6 4 10 4z"/>
<glyph unicode="&#66;" d="M356 32l-192 0c-7 0-14 6-14 14 0 8 7 14 14 14l192 0c8 0 15-6 15-14 0-8-7-14-15-14z m135 135c0-28-22-50-50-50l-370 0c-28 0-50 22-50 50l0 264c0 27 22 49 50 49l370 0c28 0 50-22 50-49z m-29 264c0 11-9 21-21 21l-370 0c-12 0-21-10-21-21l0-264c0-12 9-21 21-21l370 0c12 0 21 9 21 21l0 264z m15-235l-441 0c-4 0-7 3-7 7 0 4 3 7 7 7l441 0c4 0 7-3 7-7 0-4-3-7-7-7z m0 206l-441 0c-4 0-7 3-7 7 0 4 3 7 7 7l441 0c4 0 7-3 7-7 0-4-3-7-7-7z m-246-104c-1 0-2 0-2 1-4 1-6 5-4 9l1 5c2 3 6 5 10 4 3-2 5-6 4-9l-2-5c-1-3-4-5-7-5z m-27-70c-1 0-2 1-3 1-3 1-5 5-4 9l21 52c1 4 5 5 9 4 3-1 5-6 4-9l-20-52c-1-3-4-5-7-5z m-29 49c-1 0-2 0-2 0-4 2-6 6-4 9l29 76c2 4 6 6 9 4 4-1 6-5 4-9l-29-76c-1-2-4-4-7-4z m-14-36c0 0-1 0-2 1-4 1-6 5-4 9l4 11c2 4 6 6 9 4 4-1 6-5 4-9l-4-11c-1-3-4-5-7-5z"/>
<glyph unicode="&#67;" d="M256 28c-126 0-228 102-228 228 0 61 24 118 67 161 43 43 100 67 161 67 46 0 90-13 128-39 63-43 100-113 100-189 0-6 0-11 0-16-8-119-108-212-228-212z m0 428c-53 0-103-21-141-59-38-37-59-88-59-141 0-110 90-200 200-200 105 0 192 82 199 187 1 4 1 8 1 13 0 66-33 128-88 165-33 23-72 35-112 35z m-171-220c-3 0-6 2-7 6 0 5 0 9 0 14 0 4 3 7 7 7 4 0 7-3 7-7 0-4 0-8 1-13 0-4-3-7-7-7 0 0 0 0-1 0z m64-115c-1 0-3 1-4 2-28 21-49 49-59 83-2 3 0 7 4 8 4 2 8 0 9-4 10-31 29-57 54-76 3-2 4-7 2-10-2-2-4-3-6-3z m107 128c-2 0-4 1-5 2l-150 150c-3 3-3 7 0 10 3 3 7 3 10 0l145-145 142 150c3 3 7 3 10 1 3-3 3-8 0-10l-147-156c-1-1-3-2-5-2 0 0 0 0 0 0z m0 0c-4 0-7 3-7 7 0 4 3 7 7 7l206 6c4 0 7-3 7-7 0-4-3-7-7-7l-206-6c0 0 0 0 0 0z"/>
<glyph unicode="&#68;" d="M256 29c-11 0-21 5-28 15l-200 265c-13 18-13 45-1 63l57 83c11 16 35 28 56 28l232 0c21 0 45-12 56-28l57-83c12-18 12-45-1-63l-200-265c-7-10-17-15-28-15z m-116 426c-11 0-27-8-32-16l-58-83c-5-8-5-22 1-30l199-265c4-5 8-5 12 0l199 265c6 8 6 22 0 30l-57 83c-5 8-21 16-32 16z m342-121l-434 0c-4 0-7 3-7 7 0 4 3 7 7 7l434 0c4 0 7-3 7-7 0-4-3-7-7-7z m-237 3c-2 0-4 0-5 1l-131 120c-3 3-4 7-1 10 3 3 7 3 10 1l131-120c3-3 4-7 1-10-1-2-3-2-5-2z m18 0c-2 0-4 0-6 2-2 3-2 7 1 10l70 64c3 2 7 2 10-1 2-3 2-7-1-10l-70-64c-1-1-3-1-4-1z m88 80c-2 0-4 1-5 2-3 3-3 8 0 10l5 5c3 2 7 2 10-1 3-3 2-7 0-10l-5-4c-2-1-4-2-5-2z m22 20c-2 0-4 1-5 2-3 3-3 8 0 10l21 20c3 2 8 2 10-1 3-3 3-7 0-10l-21-19c-2-1-3-2-5-2z m-221-125c-3 0-5 2-6 5l-9 21c-1 4 0 8 4 10 4 1 8-1 9-5l9-21c1-4-1-8-4-9-1 0-2-1-3-1z m10-24c-3 0-6 2-7 5l-2 6c-2 4 0 8 4 9 3 2 7 0 9-4l2-6c2-4 0-8-4-9-1-1-2-1-2-1z m94-241c-3 0-6 2-7 5l-84 216c-2 4 0 8 4 10 3 1 7-1 9-4l85-217c1-4-1-8-4-9-1-1-2-1-3-1z m0 0c-1 0-2 0-3 1-3 1-5 5-4 9l110 283c2 4 6 6 9 4 4-1 6-5 4-9l-109-283c-2-3-4-5-7-5z"/>
<glyph unicode="&#69;" d="M389 28l-271 0c-28 0-47 24-47 51l0 356c0 29 21 49 47 49l143 0c4 0 7-2 10-5l163-162c2-2 7-6 7-10l0-228c0-29-26-51-52-51z m-271 427c-12 0-18-9-18-20l0-356c0-11 6-22 18-22l271 0c11 0 23 11 23 22l0 222-157 154z m306-156l-128 0c-24 0-40 21-40 43l0 128c0 3-1 6 1 7 3 1 4 1 6-1l167-166c2-2 2-4 1-7-1-3-4-4-7-4z m-154 154l0-111c0-15 10-29 26-29l111 0z m-70-218l-57 0c-4 0-7 3-7 7 0 4 3 7 7 7l57 0c4 0 7-3 7-7 0-4-3-7-7-7z m100 0l-72 0c-3 0-7 3-7 7 0 4 4 7 7 7l72 0c3 0 7-3 7-7 0-4-4-7-7-7z m56 0l-28 0c-4 0-7 3-7 7 0 4 3 7 7 7l28 0c4 0 8-3 8-7 0-4-4-7-8-7z m-184-36l-29 0c-4 0-7 3-7 7 0 4 3 7 7 7l29 0c3 0 7-3 7-7 0-4-4-7-7-7z m85 0l-57 0c-4 0-7 3-7 7 0 4 3 7 7 7l57 0c4 0 7-3 7-7 0-4-3-7-7-7z m99 0l-71 0c-4 0-7 3-7 7 0 4 3 7 7 7l71 0c4 0 8-3 8-7 0-4-4-7-8-7z m-142-43l-71 0c-4 0-7 4-7 8 0 3 3 7 7 7l71 0c4 0 7-4 7-7 0-4-3-8-7-8z m100 0l-71 0c-4 0-7 4-7 8 0 3 3 7 7 7l71 0c4 0 7-4 7-7 0-4-3-8-7-8z m42 0l-14 0c-4 0-7 4-7 8 0 3 3 7 7 7l14 0c4 0 8-4 8-7 0-4-4-8-8-8z m-184-35l-29 0c-4 0-7 3-7 7 0 4 3 7 7 7l29 0c3 0 7-3 7-7 0-4-4-7-7-7z m78 0l-50 0c-4 0-7 3-7 7 0 4 3 7 7 7l50 0c4 0 7-3 7-7 0-4-3-7-7-7z"/>
<glyph unicode="&#70;" d="M391 25l-3 0c-25 0-50 26-50 52l0 21c0 10-4 12-14 12l-2 0c-7 0-20-2-20-12l0-21c0-25-18-52-44-52l-2 0c-28 0-46 27-46 52l0 21c0 12-13 12-18 12l-3 0c-9 0-22-3-22-12l0-21c0-25-15-52-42-52l-2 0c-25 0-48 25-48 52l0 239c0 95 78 171 175 171l13 0c96 0 174-76 174-171l0-239c0-25-20-52-46-52z m-69 114l2 0c26 0 42-16 42-41l0-21c0-10 12-24 22-24l3 0c8 0 18 13 18 24l0 239c0 80-64 143-146 143l-13 0c-81 0-147-64-147-143l0-239c0-11 11-24 20-24l2 0c9 0 14 14 14 24l0 21c0 27 26 41 50 41l3 0c27 0 46-17 46-41l0-21c0-11 9-24 18-24l2 0c9 0 16 13 16 24l0 21c0 24 20 41 48 41z m-63 291c0 0 0 0 0 0-2 0-3 1-5 1-4 0-7 3-7 7 0 4 3 7 7 7 2 0 4 0 5 0 4 0 7-4 7-8 0-4-3-7-7-7z m121-205c-3 0-7 3-7 7l0 86c0 51-35 95-86 109-4 1-7 5-6 8 1 4 5 6 9 5 58-15 98-64 98-122l0-86c0-4-4-7-8-7z m-211 36c-23 0-41 19-41 42 0 23 18 41 41 41 23 0 42-18 42-41 0-23-19-42-42-42z m0 69c-15 0-27-12-27-27 0-15 12-27 27-27 15 0 28 12 28 27 0 15-13 27-28 27z m105-69c-23 0-42 19-42 42 0 23 19 41 42 41 23 0 42-18 42-41 0-23-19-42-42-42z m0 69c-15 0-27-12-27-27 0-15 12-27 27-27 15 0 27 12 27 27 0 15-12 27-27 27z"/>
<glyph unicode="&#71;" d="M306 62l-178 0c-63 0-114 51-114 115 0 39 21 76 54 97 3 33 28 59 61 63 31 69 99 113 176 113 106 0 193-87 193-193 0-104-84-191-187-194-2-1-4-1-5-1z m-169 247c-22 0-41-19-41-41l0-2c0-5-3-10-8-13-27-15-45-45-45-76 0-48 38-87 85-87l174 0c2 1 4 1 5 1 89 1 162 76 162 166 0 91-74 165-164 165-68 0-128-41-153-104-3-5-8-9-14-9 0 0-1 0-1 0z m296-48c-4 0-8 4-8 8 0 3 0 7 0 11-1 4 2 7 6 8 4 0 8-3 8-7 0-4 1-8 1-12 0-4-3-8-7-8 0 0 0 0 0 0z m-14 55c-3 0-5 1-6 3-19 34-54 55-92 55-4 0-7 3-7 7 0 4 3 7 7 7 43 0 83-24 104-62 2-3 1-8-3-10-1 0-2 0-3 0z m-153-182c-10 0-19 5-25 13l-54 69c-7 9-9 19-5 26 4 8 12 12 22 12l26 0 0 23c0 23 16 41 38 41 17 0 30-9 36-25 1-3-1-8-5-9-3-1-8 0-9 4-4 10-11 16-22 16-14 0-24-12-24-27l0-30c0-4-5-7-9-7l-31 0c-5 0-8-2-9-4-1-2 0-7 3-11l54-69c4-5 9-8 14-8 4 0 9 3 13 7l53 70c4 5 5 9 4 11-1 2-5 4-10 4l-27 0c-4 0-7 3-7 7 0 4 3 7 7 7l27 0c11 0 19-4 23-12 3-7 1-17-5-25l-54-71c-7-8-15-12-24-12z m30 126c-2 0-4 1-5 2-2 2-2 4-2 5 0 2 0 4 2 5 2 3 7 3 10 0 1-1 2-3 2-5 0-1-1-3-2-5-1-1-3-2-5-2z"/>
<glyph unicode="&#72;" d="M164 140c-3 0-6 1-7 4-1 2-1 4-2 6 0 1 0 3-1 5-1 4 2 8 5 9 4 1 8-2 9-6 1-2 1-3 1-5 1-2 1-2 1-3 2-4 0-8-4-10-1 0-1 0-2 0z m81-66c0 0-1 0-1 0-31 4-59 22-76 48-2 4-1 8 2 10 3 2 8 1 10-2 15-23 39-39 66-42 4-1 7-4 6-8 0-4-4-6-7-6z m11-51c-84 0-153 69-153 153 0 54 79 231 99 271 14 27 33 42 53 42 12 0 35-6 53-42 21-42 101-216 101-271 0-84-69-153-153-153z m-1 437c-9 0-19-9-27-26-25-49-96-214-96-258 0-69 55-124 124-124 69 0 124 55 124 124 0 43-69 203-97 258-9 17-19 26-28 26z"/>
<glyph unicode="&#73;" d="M46 29c-4 0-8 1-10 4l-3 3c-4 4-5 9-4 14 4 17 27 107 49 129l285 285c12 12 29 19 46 19 19 0 36-7 50-21l3-3c12-13 20-30 21-48 2-19-5-37-17-49l-286-286c-22-22-113-43-131-47-1 0-2 0-3 0z m363 426c-10 0-19-4-26-11l-285-285c-10-11-26-58-37-98 40 10 89 25 99 35l285 286c7 7 11 16 10 27-1 11-5 22-13 30l-3 3c-8 8-19 13-30 13z m24-101c-1 0-3 1-5 2l-76 77c-3 3-3 7 0 10 3 3 7 3 10 0l76-77c3-2 3-7 0-10-1-1-3-2-5-2z m-258-259c-2 0-4 1-5 3l-77 76c-3 3-3 7 0 10 3 3 7 3 10 0l77-76c2-3 2-8 0-10-2-2-4-3-5-3z m-56-36c-2 0-4 1-5 2l-49 49c-3 3-3 7 0 10 2 3 7 3 10 0l49-49c2-3 2-7 0-10-2-1-3-2-5-2z m9 84c-2 0-4 0-5 2-3 2-3 7 0 10l211 211c3 3 8 3 10 0 3-2 3-7 0-10l-211-211c-2-2-4-2-5-2z m232 232c-2 0-4 1-5 2-3 3-3 7 0 10l26 27c3 2 8 2 10 0 3-3 3-8 0-11l-26-26c-1-1-3-2-5-2z m-209-256c-2 0-4 1-5 2-3 3-3 7 0 10l259 259c3 3 7 3 10 0 3-3 3-7 0-10l-259-259c-1-1-3-2-5-2z"/>
<glyph unicode="&#74;" d="M99 370c-8 0-15 6-15 14l0 92c0 8 7 15 15 15 8 0 14-7 14-15l0-92c0-8-6-14-14-14z m0-349c-8 0-15 7-15 15l0 220c0 8 7 14 15 14 8 0 14-6 14-14l0-220c0-8-6-15-14-15z m-3 221c-40 0-73 33-73 73 0 41 33 74 73 74 40 0 73-33 73-74 0-40-33-73-73-73z m0 118c-25 0-45-20-45-45 0-24 20-44 45-44 25 0 45 20 45 44 0 25-20 45-45 45z m13-28c0 0-1 0-1 0l-2 1c-4 0-6 4-6 8 1 4 5 6 9 6l2-1c3-1 6-4 5-8 0-3-3-6-7-6z m-37-31c-4 0-7 3-7 7 0 14 7 27 19 34 3 2 8 1 10-3 2-3 0-8-3-9-8-5-12-13-12-22 0-4-3-7-7-7z m183-59c-8 0-14 6-14 14l0 220c0 8 6 15 14 15 8 0 14-7 14-15l0-220c0-8-6-14-14-14z m0-221c-8 0-14 7-14 15l0 92c0 8 6 14 14 14 8 0 14-6 14-14l0-92c0-8-6-15-14-15z m-3 93c-40 0-73 33-73 73 0 41 33 74 73 74 41 0 73-33 73-74 0-40-32-73-73-73z m0 118c-24 0-44-20-44-45 0-24 20-44 44-44 25 0 45 20 45 44 0 25-20 45-45 45z m14-28c-1 0-1 0-2 0l-2 1c-4 0-6 4-5 8 0 4 4 6 8 6l2-1c4-1 6-4 6-8-1-3-4-6-7-6z m-38-31c-4 0-7 3-7 7 0 14 7 27 19 34 4 2 8 1 10-3 2-3 1-8-3-9-7-5-12-13-12-22 0-4-3-7-7-7z m191 247c-8 0-15 6-15 14l0 42c0 8 7 15 15 15 8 0 14-7 14-15l0-42c0-8-6-14-14-14z m0-399c-8 0-15 7-15 15l0 270c0 8 7 14 15 14 8 0 14-6 14-14l0-270c0-8-6-15-14-15z m-3 271c-40 0-73 33-73 73 0 41 33 73 73 73 40 0 73-32 73-73 0-40-33-73-73-73z m0 118c-25 0-45-20-45-45 0-24 20-44 45-44 25 0 45 20 45 44 0 25-20 45-45 45z m13-28c0 0-1 0-1 0l-2 0c-4 1-6 5-6 9 1 4 5 6 9 5l2 0c3-1 6-4 5-8 0-4-3-6-7-6z m-37-31c-4 0-7 3-7 7 0 14 7 27 19 34 3 2 8 0 10-3 2-3 0-8-3-10-8-4-12-12-12-21 0-4-3-7-7-7z"/>
<glyph unicode="&#75;" d="M257 150c-9 0-19 5-25 13l-54 72c-7 9-9 20-5 29 4 8 12 13 22 13l21 0 0 14c0 24 18 44 39 44 18 0 32-9 37-23 2-4 0-8-4-10-4-1-8 1-9 5-5 11-15 14-24 14-13 0-25-14-25-30l0-22c0-4-4-6-8-6l-27 0c-5 0-8-2-9-5-2-4-1-9 3-14l54-72c7-9 19-10 26-1l54 73c4 5 5 10 3 14-1 3-4 5-9 5l-31 0c-4 0-7 3-7 7 0 4 3 7 7 7l31 0c10 0 18-5 22-13 4-8 2-19-5-28l-53-74c-7-8-15-12-24-12z m30 125c-2 0-4 1-5 2-2 2-2 3-2 5 0 2 0 4 2 5 2 3 7 3 10 0 1-1 2-3 2-5 0-2-1-3-2-5-2-1-4-2-5-2z m-31-250c-127 0-231 104-231 231 0 127 104 231 231 231 127 0 231-104 231-231 0-127-104-231-231-231z m0 434c-112 0-203-91-203-203 0-112 91-203 203-203 112 0 203 91 203 203 0 112-91 203-203 203z m172-210c-4 0-7 3-7 7 0 74-50 139-121 159-4 1-7 5-5 9 1 3 4 6 8 5 78-22 132-93 132-173 0-4-3-7-7-7z m-162 171c-1 0-1 0-1 0-3 1-6 1-9 1-4 0-7 3-7 7 0 4 3 7 7 7 3 0 7 0 10 0 4-1 7-4 7-8-1-4-4-7-7-7z"/>
<glyph unicode="&#76;" d="M256 59c-84 0-238 63-238 153 0 89 154 152 238 152 84 0 238-63 238-152 0-90-154-153-238-153z m0 277c-79 0-210-58-210-124 0-67 131-125 210-125 79 0 210 58 210 125 0 66-131 124-210 124z m0-200c-41 0-75 33-75 74 0 42 34 75 75 75 41 0 75-33 75-75 0-41-34-74-75-74z m0 135c-33 0-60-27-60-61 0-33 27-60 60-60 33 0 60 27 60 60 0 34-27 61-60 61z m-28-42c-2 0-3 1-5 2-3 2-3 7 0 10 1 1 3 3 4 4 3 3 8 2 10-1 3-3 2-7-1-10-1-1-2-2-3-3-1-1-3-2-5-2z m28-64c-25 0-45 21-45 45 0 4 3 7 7 7 4 0 7-3 7-7 0-17 14-30 31-30 4 0 7-4 7-8 0-3-3-7-7-7z m-1 217c-8 0-14 7-14 14l0 43c0 8 6 14 14 14 8 0 14-6 14-14l0-43c0-7-6-14-14-14z m-82-5c-5 0-10 3-13 8l-13 26c-3 7 0 16 7 19 7 4 15 1 19-6l13-26c3-7 1-16-6-19-2-1-5-2-7-2z m-83-33c-4 0-8 2-10 5l-19 21c-5 6-5 15 1 20 6 5 15 5 20-1l19-21c5-6 5-15-1-20-3-2-6-4-10-4z m241 33c-2 0-4 1-6 2-7 3-10 12-6 19l13 26c3 7 12 10 19 6 7-3 10-12 6-19l-13-26c-3-5-8-8-13-8z m83-33c-3 0-7 2-9 4-6 5-7 14-1 20l18 21c5 6 14 6 20 1 6-5 7-14 1-20l-18-21c-3-3-7-5-11-5z"/>
<glyph unicode="&#77;" d="M222 71c-32 0-61 25-92 56-21 22-42 44-51 66-11 27-5 53 18 77l179 178c23 24 54 36 87 36 33 0 64-13 88-36 23-23 36-54 36-87 0-33-12-65-36-88l-178-178c-16-16-33-24-51-24z m141 385c-25 0-49-10-67-28l-178-178c-20-20-18-34-13-46 7-18 26-37 45-56 27-27 51-49 72-49 10 0 20 5 31 16l178 178c18 18 28 42 28 68 0 25-10 49-28 67-18 18-42 28-68 28z m63-105c0 0 0 0 0 0-4 0-7 2-7 6 0 4 0 8-1 11 0 4 2 8 6 8 4 1 8-2 8-6 1-4 1-8 1-13 0-4-3-6-7-6z m-155 1c-2 0-4 1-5 2-3 3-3 7 0 10l45 46c28 27 73 27 101-1 3-2 3-7 0-10-2-2-7-2-10 0-22 23-58 23-81 1l-45-46c-1-1-3-2-5-2z m-232-324c-4 0-7 1-10 4-6 5-6 14 0 20l89 89c5 5 14 5 20 0 6-6 6-15 0-20l-89-89c-3-3-6-4-10-4z"/>
<glyph unicode="&#78;" d="M257 38c-116 0-210 95-210 210 0 116 94 211 210 211 116 0 210-95 210-211 0-115-94-210-210-210z m0 392c-101 0-182-81-182-182 0-100 81-181 182-181 100 0 181 81 181 181 0 101-81 182-181 182z m0-273c-51 0-92 41-92 91 0 51 41 92 92 92 50 0 91-41 91-92 0-50-41-91-91-91z m0 169c-43 0-78-35-78-78 0-42 35-77 78-77 42 0 77 35 77 77 0 43-35 78-77 78z m127-307c-26 0-52 9-72 26-6 5-6 14-1 20 5 6 14 7 20 2 15-13 34-20 53-20 45 0 81 37 81 82 0 21-8 41-23 56-5 6-5 15 1 20 6 5 15 5 20 0 20-21 31-48 31-76 0-61-50-110-110-110z m-256 2c-60 0-110 49-110 110 0 26 10 51 27 71 5 6 14 7 20 2 6-6 6-15 1-21-12-14-19-33-19-52 0-45 36-82 81-82 21 0 41 8 56 23 6 5 15 5 21 0 5-6 5-15-1-21-20-19-47-30-76-30z m-69 276c-3 0-7 2-10 5-20 20-31 47-31 76 0 60 50 110 110 110 30 0 58-12 81-33 5-6 5-15 0-20-6-6-15-6-20-1-17 17-38 25-61 25-45 0-81-36-81-81 0-21 8-41 23-56 5-6 5-15-1-21-3-2-6-4-10-4z m390 10c-3 0-7 1-9 3-6 6-7 15-2 21 13 14 20 33 20 52 0 45-37 82-82 82-21 0-41-10-55-27-5-6-14-7-20-2-6 5-7 14-2 20 19 23 48 37 77 37 61 0 110-49 110-110 0-26-9-51-26-71-3-3-7-5-11-5z m3-18l-64 0c-4 0-7 4-7 8 0 4 3 7 7 7l64 0c4 0 7-3 7-7 0-4-3-8-7-8z m-92 0l-29 0c-4 0-7 4-7 8 0 4 3 7 7 7l29 0c4 0 7-3 7-7 0-4-3-8-7-8z m92-92l-121 0c-4 0-7 3-7 7 0 4 3 7 7 7l121 0c4 0 7-3 7-7 0-4-3-7-7-7z m-270 92l-121 0c-4 0-7 4-7 8 0 4 3 7 7 7l121 0c4 0 7-3 7-7 0-4-3-8-7-8z m0-92l-121 0c-4 0-7 3-7 7 0 4 3 7 7 7l121 0c4 0 7-3 7-7 0-4-3-7-7-7z m131-149c-4 0-7 3-7 7l0 121c0 4 3 7 7 7 4 0 7-3 7-7l0-121c0-4-3-7-7-7z m-93-7c-4 0-7 3-7 7l0 35c0 4 3 7 7 7 4 0 7-3 7-7l0-35c0-4-3-7-7-7z m0 64c-4 0-7 3-7 7l0 57c0 4 3 7 7 7 4 0 7-3 7-7l0-57c0-4-3-7-7-7z m93 206c-4 0-7 3-7 7l0 128c0 4 3 7 7 7 4 0 7-3 7-7l0-128c0-4-3-7-7-7z m-93 7c-4 0-7 3-7 7l0 121c0 4 3 7 7 7 4 0 7-3 7-7l0-121c0-4-3-7-7-7z"/>
<glyph unicode="&#79;" d="M256 52c-15 0-27 10-35 18-18 18-143 169-153 180-22 23-35 53-35 85 0 33 13 63 36 86l3 3c23 23 53 36 86 36 32 0 63-13 86-36 0 0 1-1 1-1 0 0 4-5 11-5 7 0 10 4 10 4 1 1 1 2 2 2 23 23 54 36 86 36 33 0 63-13 86-36l3-3c23-23 36-53 36-86 0-32-13-62-35-85-10-11-131-159-152-180-8-8-20-18-36-18z m-98 380c-25 0-48-10-66-28l-3-3c-18-18-27-41-27-66 0-24 9-48 27-65 0 0 0-1 1-1 46-56 137-165 151-179 7-6 12-10 15-10 5 0 11 6 16 10 16 16 105 124 150 179 1 0 1 1 1 1 18 17 27 41 27 65 0 25-9 48-27 66l-3 3c-18 18-41 28-66 28-24 0-47-10-65-27-3-5-14-16-33-16-18 0-30 12-33 16-17 17-40 27-65 27z m-63-88c-1 0-1 0-2 0-4 1-6 5-5 9 4 12 10 23 19 32l2 2c18 18 44 26 69 20 4-1 6-5 5-9-1-4-4-6-8-5-20 5-41-1-56-16l-2-2c-7-7-12-16-15-26-1-3-4-5-7-5z m113 31c-2 0-3 1-5 2-2 2-5 5-7 7-4 2-4 6-2 10 2 3 7 3 10 1 3-2 6-5 9-8 3-3 3-7 0-10-1-1-3-2-5-2z"/>
<glyph unicode="&#80;" d="M377 11l-242 0c-54 0-68 18-68 74l0 253c0 8 6 14 14 14 8 0 14-6 14-14l0-253c0-41 2-45 40-45l242 0c38 0 45 4 45 45l0 253c0 8 7 14 14 14 8 0 15-6 15-14l0-253c0-56-20-74-74-74z m-61 7c-4 0-8 3-8 7l0 135c0 14-2 15-18 15l-68 0c-16 0-13-1-13-15l0-135c0-4-3-7-7-7-4 0-7 3-7 7l0 135c0 25 6 29 27 29l68 0c21 0 33-4 33-29l0-135c0-4-3-7-7-7z m-295 278c-4 0-8 2-11 6-5 6-3 15 3 19l234 177c7 5 16 3 20-3 5-6 4-15-2-20l-235-176c-3-2-6-3-9-3z m470 0c-3 0-6 1-9 3l-235 176c-6 5-7 14-2 20 4 6 13 8 20 3l234-177c6-4 8-13 3-19-3-4-7-6-11-6z m-360-64c-4 0-7 3-7 7l0 81c0 2-1 4 1 5l93 72c3 2 7 2 9-2 3-3 3-7 0-10l-89-69 0-77c0-4-3-7-7-7z m0-36c-4 0-7 3-7 7l0 7c0 4 3 7 7 7 4 0 7-3 7-7l0-7c0-4-3-7-7-7z"/>
<glyph unicode="&#81;" d="M245 316c0-27-22-49-49-49l-122 0c-27 0-49 22-49 49l0 122c0 27 22 49 49 49l122 0c27 0 49-22 49-49l0-122z m-28 122c0 11-9 21-21 21l-122 0c-11 0-21-10-21-21l0-122c0-12 10-21 21-21l122 0c12 0 21 9 21 21l0 122z m-135-65c-4 0-7 4-7 7l0 13c0 20 13 37 31 37l44 0c4 0 7-3 7-7 0-4-3-7-7-7l-44 0c-11 0-17-12-17-23l0-13c0-3-3-7-7-7z m-3-24c-2 0-4 1-5 2-1 1-2 3-2 5 0 2 1 4 2 5 3 3 7 3 10 0 1-1 2-3 2-5 0-2-1-4-2-5-1-1-3-2-5-2z m408-33c0-27-22-49-49-49l-122 0c-27 0-49 22-49 49l0 122c0 27 22 49 49 49l122 0c27 0 49-22 49-49l0-122z m-28 122c0 11-10 21-21 21l-122 0c-12 0-21-10-21-21l0-122c0-12 9-21 21-21l122 0c11 0 21 9 21 21l0 122z m-214-364c0-27-22-49-49-49l-122 0c-27 0-49 22-49 49l0 122c0 27 22 49 49 49l122 0c27 0 49-22 49-49l0-122z m-28 122c0 12-9 21-21 21l-122 0c-11 0-21-9-21-21l0-122c0-11 10-21 21-21l122 0c12 0 21 10 21 21l0 122z m270-122c0-27-22-49-49-49l-122 0c-27 0-49 22-49 49l0 122c0 27 22 49 49 49l122 0c27 0 49-22 49-49l0-122z m-28 122c0 12-10 21-21 21l-122 0c-12 0-21-9-21-21l0-122c0-11 9-21 21-21l122 0c11 0 21 10 21 21l0 122z"/>
<glyph unicode="&#82;" d="M169 492c16 0 31-6 43-17l174-175c12-11 18-27 18-44 0-17-6-33-18-45l-174-174c-12-11-27-17-43-17-16 0-31 6-43 17-23 24-23 62 0 86l133 133-133 133c-23 24-23 62 0 86 12 11 27 17 43 17z m0-444c8 0 16 3 23 9l170 175c7 6 6 14 6 23 0 1 0 1 0 2 0 9 1 17-6 23l-172 175c-6 6-13 9-22 9-9 0-16-3-22-9-13-13-12-33 0-46l143-143c6-5 6-14 1-20l-144-143c-12-13-12-33 0-46 6-6 14-9 23-9z"/>
<glyph unicode="&#83;" d="M412 25c-41 0-100 45-123 95l-66 0c-23-50-82-94-123-94-76 0-93 147-93 199 0 68 54 123 121 123l256 0c67 0 121-55 121-123 0-52-17-200-93-200z m-198 124l84 0c6 0 11-4 13-10 18-44 72-86 101-86 43 0 64 110 64 172 0 52-41 94-92 94l-256 0c-50 0-92-43-92-94 0-70 22-171 64-171 29 0 84 42 101 85 2 6 7 10 13 10z m31 14l-7 0c-4 0-7 3-7 7 0 4 3 7 7 7l7 0c4 0 7-3 7-7 0-4-3-7-7-7z m-145-90c-4 0-7 3-7 7 0 4 3 7 7 7 21 0 71 51 84 85 1 3 4 5 7 5l26 0c4 0 7-3 7-7 0-4-3-7-7-7l-22 0c-16-36-65-90-95-90z m156 248c-4 0-8 2-11 5-5 6-4 15 2 20 12 10 20 23 20 34 0 5-2 10-7 14-16 15-49 45-18 88 5 6 14 7 20 3 6-5 8-14 3-20-13-18-10-28 14-49 11-10 16-23 16-37 0-19-12-39-30-55-3-2-6-3-9-3z m-129-159c-4 0-7 4-7 8l0 99c0 4 3 7 7 7 4 0 7-3 7-7l0-99c0-4-3-8-7-8z m47 51l-99 0c-4 0-7 3-7 7 0 4 3 7 7 7l99 0c4 0 7-3 7-7 0-4-3-7-7-7z m215 6c-7 0-13 2-17 7-5 4-7 11-7 17 0 7 2 13 7 17 9 9 25 9 34 0 5-4 7-10 7-17 0-6-2-13-7-17-4-5-11-7-17-7z m0 34c-3 0-5-1-7-3-2-2-3-4-3-7 0-3 1-5 3-7 4-4 10-4 14 0 2 2 3 4 3 7 0 3-1 5-3 7-2 2-4 3-7 3z m39-73c-7 0-13 2-17 7-5 4-7 11-7 17 0 7 2 13 7 17 9 9 25 9 34 0 10-9 10-25 0-34-4-5-11-7-17-7z m0 34c-3 0-5-1-7-3-2-2-3-4-3-7 0-3 1-5 3-7 4-4 10-4 14 0 4 4 4 10 0 14-2 2-4 3-7 3z m-78-34c-7 0-13 2-17 7-5 4-7 11-7 17 0 7 2 13 7 17 9 9 25 9 34 0 5-4 7-10 7-17 0-6-2-13-7-17-4-5-11-7-17-7z m0 34c-3 0-5-1-7-3-2-2-3-4-3-7 0-3 1-5 3-7 4-4 10-4 14 0 2 2 3 4 3 7 0 3-1 5-3 7-2 2-4 3-7 3z m39-73c-7 0-13 2-17 7-5 4-7 11-7 17 0 7 2 13 7 17 9 10 25 10 34 0 5-4 7-10 7-17 0-6-2-13-7-17-4-5-11-7-17-7z m0 34c-3 0-5-1-7-3-2-2-3-4-3-7 0-3 1-5 3-7 4-4 10-4 14 0 2 2 3 4 3 7 0 3-1 5-3 7-2 2-4 3-7 3z"/>
<glyph unicode="&#84;" d="M256 25c-127 0-231 104-231 231 0 127 104 231 231 231 127 0 231-104 231-231 0-127-104-231-231-231z m0 434c-112 0-203-91-203-203 0-112 91-203 203-203 112 0 203 91 203 203 0 112-91 203-203 203z m172-210c-4 0-7 3-7 7 0 74-50 139-121 159-4 1-7 5-5 9 1 3 5 6 8 5 78-22 132-93 132-173 0-4-3-7-7-7z m-162 171c-1 0-1 0-1 0-3 1-6 1-9 1-4 0-7 3-7 7 0 4 3 7 7 7 3 0 7 0 10 0 4-1 7-4 7-8-1-4-4-7-7-7z m27-229c-11 0-17 8-17 19l0 92c0 11 6 19 17 19 4 0 7-1 11-3l74-47c7-3 10-9 10-16 0-6-3-11-10-15l-74-46c-4-2-7-3-11-3z m0 116c-1 0-2-1-2-5l0-92c0-4 1-5 2-5 2 0 2 1 3 2l76 46c2 1 2 2 2 2 0 1-1 3-4 4l-73 47c-2 0-2 1-4 1z m-108-116c-10 0-15 8-15 19l0 92c0 11 5 19 15 19 4 0 6-1 10-3l73-47c6-3 10-9 10-15 0-6-4-12-10-16l-73-46c-4-2-7-3-10-3z m0 116c-2 0-1-2-1-5l0-92c0-5 0-5 1-5 1 0 1 1 2 2l74 46c2 1 3 2 3 3 0 0-1 2-4 3l-72 47c-2 0-2 1-3 1z"/>
<glyph unicode="&#85;" d="M261 128c-38 0-73 15-100 42l-4 4c-27 27-42 63-41 102 0 38 15 74 42 101l73 73c5 5 15 5 20 0l186-186c3-3 4-6 4-10 0-4-1-7-4-10l-73-73c-27-28-64-43-103-43z m-20 292l-63-63c-22-22-34-51-34-82 0-30 11-59 33-81l4-4c22-22 50-33 80-33 32 0 61 12 83 34l63 63z m-39-87c-2 0-4 1-5 2-3 3-3 8 0 10l5 5c2 3 7 3 10 0 3-2 3-7 0-10l-5-5c-2-1-3-2-5-2z m-23-90c-3 0-6 2-7 5-7 27-3 56 11 79 2 4 6 5 10 3 3-2 4-7 2-10-12-20-15-45-9-68 1-4-1-8-5-9-1 0-1 0-2 0z m-131-222c0 0-1 0-2 1-7 1-13 8-12 16 1 3 12 71 63 96 37 18 48 60 48 60 2 8 10 12 18 10 7-2 12-10 10-17-1-2-15-55-63-78-38-19-47-75-47-76-2-7-8-12-15-12z m243 354c-3 0-7 2-10 5-5 5-5 14 0 20l87 86c6 6 15 6 20 0 6-5 6-14 0-20l-87-86c-2-3-6-5-10-5z m86-85c-4 0-7 1-10 4-6 6-6 15 0 20l86 87c6 6 15 6 21 0 5-6 5-15 0-20l-87-87c-3-3-7-4-10-4z"/>
<glyph unicode="&#86;" d="M430 50l-356 0c-27 0-46 21-46 49l0 313c0 28 19 50 46 50l131 0c7 0 13-4 14-11l15-60 196 0c28 0 54-22 54-50l0-242c0-28-26-49-54-49z m-356 384c-12 0-17-10-17-22l0-313c0-12 5-21 17-21l356 0c12 0 25 9 25 21l0 242c0 12-13 22-25 22l-207 0c-7 0-13 4-14 11l-15 60z m330-334l-74 0c-4 0-7 3-7 7 0 4 3 7 7 7l74 0c7 0 16 1 16 16l0 26c0 4 3 7 7 7 4 0 7-3 7-7l0-26c0-20-13-30-30-30z m19 82c-2 0-3 0-5 2-1 1-2 3-2 5 0 1 1 3 2 5 3 2 8 2 10 0 2-2 2-4 2-5 0-2 0-4-2-5-1-2-3-2-5-2z m21 238l-178 0c-8 0-14 6-14 14 0 8 6 14 14 14l178 0c8 0 14-6 14-14 0-8-6-14-14-14z"/>
<glyph unicode="&#87;" d="M117 27c-12 0-24 5-33 14l-48 48c-8 8-13 20-14 33-1 13 4 26 13 35l200 186c5 13 23 76 35 114 8 23 21 28 30 28 14 0 24-11 28-15l151-151c3-3 13-13 11-26-2-13-13-20-25-27-1 0-2 0-3-1-47-15-101-33-111-38l-201-186c-8-9-21-14-33-14z m184 429c-1-1-2-3-4-7-36-120-37-121-40-124l-203-189c-2-2-4-7-4-13 1-5 3-11 7-14l47-48c4-3 8-5 13-5 5 0 10 2 13 5l203 189c2 2 5 5 119 42 5 2 7 4 9 5-1 1-2 1-2 2l-151 151c0 0-1 0-1 0-3 4-5 5-6 6z m-2-107c-2 0-4 1-5 2-2 2-3 6-1 8 1 4 5 23 9 41 0 0 0 0 0 1 3 8 7 12 12 13 4 1 9 1 14-4l12-12c3-3 3-8 0-10-3-3-7-3-10 0l-12 11c0 1 0 1-1 1 0-1-1-2-1-4-10-42-10-43-12-45-1-1-3-2-5-2z m56 16c-2 0-4 1-5 2l-5 6c-3 2-3 7 0 10 3 2 7 2 10 0l5-5c3-3 3-8 0-11-1-1-3-2-5-2z m-15-125c-2 0-4 0-5 2l-86 85c-2 3-2 8 0 10 3 3 8 3 10 0l86-85c3-3 3-7 0-10-1-2-3-2-5-2z m80 164c-3 0-7 1-10 4-5 5-5 14 0 20l10 10c6 5 15 5 21 0 5-6 5-15 0-20l-11-10c-2-3-6-4-10-4z m-40 40c-3 0-7 1-10 4-5 5-5 14 0 20l10 10c6 6 15 6 20 0 6-5 6-14 0-20l-10-10c-3-3-6-4-10-4z m81-81c-4 0-8 2-10 4-6 6-6 15 0 21l10 10c5 5 14 5 20 0 5-6 5-15 0-20l-10-11c-3-2-7-4-10-4z m-209-131c-4 0-7 1-10 4-3 3-4 6-4 10 0 4 1 8 4 10 5 5 15 5 20 0 3-2 4-6 4-10 0-4-1-7-4-10-2-3-6-4-10-4z"/>
<glyph unicode="&#88;" d="M161 21c-16 0-29 11-48 29l-55 56c-19 18-30 32-31 49-2 20 12 37 27 52l195 202c3 3 6 4 10 4 4 0 8-1 10-4l136-136c6-5 6-14 0-19l-195-203c-16-16-31-30-49-30z m99 358l-186-192c-14-14-19-23-19-29 1-9 12-21 23-32l56-55c10-11 21-21 27-21 7 0 18 11 29 21l185 192z m122-107c-4 0-7 2-10 5-6 5-6 14 0 20l65 64c7 8 19 20 20 26 0 5-14 19-18 23l-34 34c-9 9-20 18-25 18 0 0 0 0 0 0-7 0-20-13-26-19l-64-64c-6-6-15-6-21 0-5 6-5 15 0 20l65 64c15 15 29 28 45 28 0 0 1 0 1 0 15 0 27-10 45-27l34-34c38-38 33-53-2-89l-65-64c-3-3-6-5-10-5z m-52 101c-2 0-3 0-5 2-1 1-2 3-2 5 0 2 1 3 2 5 3 2 8 2 10 0 2-2 2-3 2-5 0-2 0-4-2-5-1-2-3-2-5-2z m20 19c-2 0-4 1-5 2-3 3-3 7 0 10l35 35c3 3 7 3 10 0 3-2 3-7 0-10l-35-35c-2-1-3-2-5-2z m0-40c-2 0-4 1-5 2-3 3-3 7 0 10l55 55c3 3 7 3 10 0 3-2 3-7 0-10l-55-55c-2-1-3-2-5-2z m20-20c-2 0-4 0-5 2-3 3-3 7 0 10l55 55c3 3 8 3 10 0 3-3 3-7 0-10l-55-55c-1-2-3-2-5-2z"/>
<glyph unicode="&#89;" d="M101 18c-6 0-11 3-14 8-5 8-2 17-1 21l47 172c0 0 0 1 0 1 0 0 0 1 0 1 0 0 0 0 0 0l-28 0c-10 0-19 4-24 12-4 8-4 18 1 27l115 208c8 14 27 26 44 26l167 0c11 0 20-5 24-13 4-8 2-18-5-27l-119-152 51 0c17 0 22-9 23-13 2-4 4-14-9-25l-255-238c0 0 0 0 0 0-7-5-12-8-17-8z m59 193l-39-143 221 206-42 0c-11 0-20 5-24 13-4 8-2 18 5 26l119 152-159 0c-6 0-16-5-19-11l-114-205 25 0c10 0 19-4 24-12 5-7 6-17 3-26z m28 113c-1 0-2 0-3 0-4 2-5 7-3 10l7 12c1 3 6 4 9 2 4-2 5-6 3-9l-6-12c-2-2-4-3-7-3z m20 36c-1 0-2 0-3 1-3 1-5 6-3 9l30 54c6 12 21 20 34 20l18 0c4 0 8-3 8-7 0-4-4-7-8-7l-18 0c-8 0-18-6-21-12l-30-55c-2-2-4-3-7-3z"/>
<glyph unicode="&#90;" d="M261 151c-18 0-33 9-39 24-1 3 0 7 4 9 3 1 7 0 9-4 3-9 14-15 26-15 14 0 27 13 27 29l0 25c0 4 1 8 5 8l24 0c3 0 8 0 9 4 2 3 1 8-3 12l-54 71c-7 9-19 10-26 1l-54-73c-4-4-5-8-3-11 1-3 4-4 9-4l34 0c4 0 7-3 7-7 0-4-3-7-7-7l-34 0c-10 0-18 4-22 12-4 8-2 17 5 26l53 72c7 8 15 12 24 12 10 0 19-4 25-13l54-71c7-8 9-18 5-26-4-8-12-12-22-12l-14 0 0-19c0-24-20-43-42-43z m-36 44c-1 0-3 1-5 3-1 1-2 3-2 5 0 2 1 3 2 5 3 2 8 2 10 0 2-2 3-4 3-5 0-2-1-4-3-5-1-2-3-3-5-3z m31-170c-127 0-231 104-231 231 0 127 104 231 231 231 127 0 231-104 231-231 0-127-104-231-231-231z m0 434c-112 0-203-91-203-203 0-112 91-203 203-203 112 0 203 91 203 203 0 112-91 203-203 203z m172-210c-4 0-7 3-7 7 0 74-50 139-121 159-4 1-7 5-5 9 1 3 4 6 8 5 78-22 132-93 132-173 0-4-3-7-7-7z m-162 171c-1 0-1 0-1 0-3 1-6 1-9 1-4 0-7 3-7 7 0 4 3 7 7 7 3 0 7 0 10 0 4-1 7-4 7-8-1-4-4-7-7-7z"/>
<glyph unicode="&#48;" d="M159 412c-3 0-6 2-7 5-1 3 1 7 4 9 3 0 6 1 8 2 4 1 8-2 9-5 1-4-2-8-5-9-3-1-5-1-7-2-1 0-2 0-2 0z m-70-96c-4 0-7 3-7 7 0 37 19 72 50 91 4 2 8 1 10-2 2-3 1-8-2-10-28-17-44-47-44-79 0-4-3-7-7-7z m325-290c-6 0-12 4-14 10l-8 26-19 1c-3 0-7 1-9 4l-27 27c-4 4-5 10-3 16l4 9-2 2-5-4c-6-4-14-3-19 1l-57 58c-21-10-44-14-66-14-90 0-162 72-162 162 0 89 72 162 162 162 89 0 162-73 162-162 0-22-5-43-13-63l137-137c2-2 4-6 4-9l6-60c1-7-4-14-11-15l-57-13c-1-1-2-1-3-1z m-34 65l23-2c5 0 10-4 12-9l8-23 33 8-5 42-140 141c-4 4-6 11-3 16 10 19 14 39 14 60 0 73-60 133-133 133-74 0-134-60-134-133 0-74 60-134 134-134 22 0 43 5 62 16 6 3 12 2 17-3l56-56 5 4c5 3 12 3 17-1l19-16c4-4 6-11 3-16l-4-11z"/>
<glyph unicode="&#49;" d="M484 77c0-27-23-49-50-49l-356 0c-27 0-50 22-50 49l0 193c0 28 23 50 50 50l356 0c27 0 50-22 50-50l0-193z m-29 193c0 12-9 21-21 21l-356 0c-12 0-21-9-21-21l0-193c0-11 9-20 21-20l356 0c12 0 21 9 21 20l0 193z m-321-43l-7 0c-4 0-8 3-8 7 0 4 4 7 8 7l7 0c4 0 7-3 7-7 0-4-3-7-7-7z m49 0l-7 0c-4 0-7 3-7 7 0 4 3 7 7 7l7 0c4 0 8-3 8-7 0-4-4-7-8-7z m50 0l-7 0c-4 0-7 3-7 7 0 4 3 7 7 7l7 0c4 0 7-3 7-7 0-4-3-7-7-7z m43 0l-7 0c-4 0-7 3-7 7 0 4 3 7 7 7l7 0c4 0 7-3 7-7 0-4-3-7-7-7z m50 0l-7 0c-4 0-8 3-8 7 0 4 4 7 8 7l7 0c4 0 7-3 7-7 0-4-3-7-7-7z m49 0l-7 0c-4 0-7 3-7 7 0 4 3 7 7 7l7 0c4 0 8-3 8-7 0-4-4-7-8-7z m-241-42l-7 0c-4 0-8 3-8 7 0 4 4 7 8 7l7 0c4 0 7-3 7-7 0-4-3-7-7-7z m49 0l-7 0c-4 0-7 3-7 7 0 4 3 7 7 7l7 0c4 0 8-3 8-7 0-4-4-7-8-7z m50 0l-7 0c-4 0-7 3-7 7 0 4 3 7 7 7l7 0c4 0 7-3 7-7 0-4-3-7-7-7z m43 0l-7 0c-4 0-7 3-7 7 0 4 3 7 7 7l7 0c4 0 7-3 7-7 0-4-3-7-7-7z m50 0l-7 0c-4 0-8 3-8 7 0 4 4 7 8 7l7 0c4 0 7-3 7-7 0-4-3-7-7-7z m49 0l-7 0c-4 0-7 3-7 7 0 4 3 7 7 7l7 0c4 0 8-3 8-7 0-4-4-7-8-7z m-241-86l-7 0c-4 0-8 3-8 7 0 4 4 7 8 7l7 0c4 0 7-3 7-7 0-4-3-7-7-7z m199 0l-157 0c-4 0-7 3-7 7 0 4 3 7 7 7l157 0c4 0 7-3 7-7 0-4-3-7-7-7z m42 0l-7 0c-4 0-7 3-7 7 0 4 3 7 7 7l7 0c4 0 8-3 8-7 0-4-4-7-8-7z m-241 43l-7 0c-4 0-8 3-8 7 0 4 4 7 8 7l7 0c4 0 7-3 7-7 0-4-3-7-7-7z m49 0l-7 0c-4 0-7 3-7 7 0 4 3 7 7 7l7 0c4 0 8-3 8-7 0-4-4-7-8-7z m50 0l-7 0c-4 0-7 3-7 7 0 4 3 7 7 7l7 0c4 0 7-3 7-7 0-4-3-7-7-7z m43 0l-7 0c-4 0-7 3-7 7 0 4 3 7 7 7l7 0c4 0 7-3 7-7 0-4-3-7-7-7z m50 0l-7 0c-4 0-8 3-8 7 0 4 4 7 8 7l7 0c4 0 7-3 7-7 0-4-3-7-7-7z m49 0l-7 0c-4 0-7 3-7 7 0 4 3 7 7 7l7 0c4 0 8-3 8-7 0-4-4-7-8-7z m-122 157c-4 0-8 2-11 6-5 6-4 15 3 20 14 11 24 26 24 39 0 7-3 13-9 18-20 17-57 49-21 96 5 7 14 8 20 3 6-5 8-14 3-20-16-21-13-33 17-58 12-10 19-24 19-40-1-21-14-44-36-61-3-2-6-3-9-3z"/>
<glyph unicode="&#50;" d="M431 25l-351 0c-25 0-43 9-52 25-10 16-8 36 4 57 0 1 3 1 3 1l149 208 0 157c0 8 1 14 9 14l128 0c8 0 19-6 19-14l0-161 141-203c0-1-1-1-1-2 12-20 13-41 4-57-9-16-28-25-53-25z m-375 68c-6-12-8-22-4-29 4-6 14-11 28-11l351 0c14 0 24 5 28 11 4 7 2 17-4 29l-143 206c-2 2 0 5 0 8l0 152-100 0 0-147c0-3-3-6-5-8z m290 90c-20 0-45 7-79 28-59 35-146-13-147-14-3-2-7-1-9 3-2 3-1 8 2 9 4 3 95 53 161 14 61-37 87-25 111-15l5 2c3 1 7 0 9-4 1-4 0-8-4-9l-5-2c-12-6-26-12-44-12z m-189-111c-22 0-39 17-39 39 0 21 17 39 39 39 21 0 39-18 39-39 0-22-18-39-39-39z m0 63c-14 0-25-11-25-24 0-14 11-25 25-25 13 0 24 11 24 25 0 13-11 24-24 24z m204-63c-18 0-33 15-33 33 0 19 15 34 33 34 19 0 34-15 34-34 0-18-15-33-34-33z m0 53c-11 0-19-9-19-20 0-10 8-19 19-19 11 0 19 9 19 19 0 11-8 20-19 20z m-112 6c-15 0-28 13-28 29 0 16 13 29 28 29 16 0 29-13 29-29 0-16-13-29-29-29z m0 43c-7 0-14-6-14-14 0-8 7-14 14-14 8 0 15 6 15 14 0 8-7 14-15 14z m41 179c-4 0-7 3-7 7l0 78c0 4 3 7 7 7 4 0 7-3 7-7l0-78c0-4-3-7-7-7z m0-36c-4 0-7 3-7 7l0 7c0 4 3 7 7 7 4 0 7-3 7-7l0-7c0-4-3-7-7-7z"/>
<glyph unicode="&#51;" d="M337 71c0-24-19-43-43-43l-78 0c-24 0-43 19-43 43l0 71c0 23 19 42 43 42l78 0c24 0 43-19 43-42z m-29 71c0 8-6 14-14 14l-78 0c-8 0-14-6-14-14l0-71c0-8 6-15 14-15l78 0c8 0 14 7 14 15z m-43-128l-21 0c-14 0-21 15-21 26l0 2c0 8 6 14 14 14 8 0 14-6 14-14l7 0c0 8 7 14 14 14 8 0 15-6 15-14l0-2c0-11-8-26-22-26z m-60 147c-53 39-91 135-91 196 0 78 64 141 142 141 78 0 142-63 142-141 0-59-36-153-88-194l-17 23c43 34 76 119 76 171 0 62-51 113-113 113-62 0-113-51-113-113 0-53 34-140 79-173z m-10-62c-3 0-5 1-6 4-2 4 0 8 3 9l119 52c4 1 8 0 9-4 2-3 0-8-3-9l-119-52c-1 0-2 0-3 0z m0-50c-3 0-5 2-6 4-2 4 0 8 3 10l119 51c4 2 8 0 9-4 2-3 0-7-3-9l-119-51c-1-1-2-1-3-1z m63 299c-2 0-4 1-5 2-1 1-2 3-2 5 0 2 1 4 2 5 3 3 7 3 10 0 1-1 2-3 2-5 0-2-1-4-2-5-1-1-3-2-5-2z m1-64c-4 0-7 3-7 7l0 36c0 4 3 7 7 7 4 0 7-3 7-7l0-36c0-4-3-7-7-7z m-30 0c-2 0-4 0-5 2l-20 19c-2 3-2 7 0 10 3 3 8 3 10 0l20-19c3-3 3-7 0-10-2-2-3-2-5-2z m59 0c-2 0-3 0-5 2-3 3-3 7 0 10l20 19c2 3 7 3 10 0 2-3 2-7 0-10l-20-19c-1-2-3-2-5-2z"/>
<glyph unicode="&#52;" d="M487 124c0-27-22-49-49-49l-364 0c-27 0-49 22-49 49l0 264c0 27 22 49 49 49l364 0c27 0 49-22 49-49l0-264z m-28 264c0 12-10 21-21 21l-364 0c-11 0-21-9-21-21l0-264c0-12 10-21 21-21l364 0c11 0 21 9 21 21l0 264z m-209-174c-2 0-3 0-4 1l-120 97c-3 3-3 7-1 10 3 4 7 4 10 2l115-94 112 89c3 3 8 2 10-1 2-3 2-7-1-10l-117-93c-1-1-2-1-4-1z m-103-30c-2 0-3 0-5 1-3 3-3 7-1 10l4 4c2 3 7 3 10 1 3-3 3-7 0-10l-3-4c-1-2-3-2-5-2z m18 21c-2 0-3 1-5 2-3 3-3 7 0 10l40 45c2 3 7 3 10 1 3-3 3-7 0-10l-40-45c-1-2-3-3-5-3z m178-13c-2 0-4 1-6 3l-42 51c-3 3-2 7 1 10 3 2 7 2 10-1l42-51c3-3 2-8-1-10-1-1-3-2-4-2z"/>
<glyph unicode="&#53;" d="M130 21c-20 0-41 6-59 18l-4 3c-47 33-58 97-26 145l99 132c16 22 40 37 67 42 27 5 55-1 78-17l3-2c20-14 34-34 41-56 2-8-2-16-10-18-7-2-15 2-18 10-4 16-15 30-29 40l-4 3c-16 11-36 16-56 12-20-3-37-14-49-31l-99-132c-23-34-15-81 20-105l3-2c35-24 82-16 105 19l31 43c4 7 13 8 19 4 7-5 8-14 4-20l-30-44c-20-29-53-44-86-44z m157 128c-21 0-42 6-60 19l-3 2c-20 14-34 33-41 56-2 8 2 15 10 18 7 2 15-2 18-10 4-17 15-31 29-40l4-3c34-24 81-15 105 19l99 132c23 34 15 81-20 105l-3 2c-17 12-37 16-57 12-20-3-37-14-48-31l-31-43c-4-7-13-8-19-4-7 5-8 13-4 20l30 44c16 22 40 38 67 42 27 5 55-1 78-16l4-3c47-33 58-98 26-145l-99-132c-20-29-53-44-85-44z m88 128c-1 0-3 0-4 1-3 2-4 7-1 10l3 5c3 3 7 4 10 2 3-3 4-7 2-10l-4-6c-2-1-4-2-6-2z m16 21c-1 0-3 1-4 2-3 2-4 7-1 10l31 42c8 10 11 24 8 37-2 13-10 25-21 33l-2 1c-3 3-4 7-2 10 2 3 7 4 10 2l3-2c14-9 23-24 26-41 3-17 0-35-10-49l-32-42c-1-2-3-3-6-3z"/>
<glyph unicode="&#54;" d="M430 363l-192 0c-33 0-60 27-60 60 0 33 27 61 60 61l192 0c34 0 61-28 61-61 0-33-27-60-61-60z m-192 92c-17 0-32-14-32-32 0-18 15-32 32-32l192 0c18 0 32 14 32 32 0 18-14 32-32 32z m192-427l-192 0c-33 0-60 28-60 61 0 33 27 60 60 60l192 0c34 0 61-27 61-60 0-33-27-61-61-61z m-192 93c-17 0-32-14-32-32 0-18 15-32 32-32l192 0c18 0 32 14 32 32 0 18-14 32-32 32z m192 71l-192 0c-33 0-60 27-60 60 0 34 27 61 60 61l192 0c34 0 61-27 61-61 0-33-27-60-61-60z m-192 92c-17 0-32-14-32-32 0-17 15-32 32-32l192 0c18 0 32 15 32 32 0 18-14 32-32 32z m-149 79l-7 0c-34 0-61 27-61 60 0 33 27 61 61 61l7 0c33 0 60-28 60-61 0-33-27-60-60-60z m-7 92c-18 0-32-14-32-32 0-18 14-32 32-32l7 0c18 0 32 14 32 32 0 18-14 32-32 32z m7-427l-7 0c-34 0-61 28-61 61 0 33 27 60 61 60l7 0c33 0 60-27 60-60 0-33-27-61-60-61z m-7 93c-18 0-32-14-32-32 0-18 14-32 32-32l7 0c18 0 32 14 32 32 0 18-14 32-32 32z m7 71l-7 0c-34 0-61 27-61 60 0 34 27 61 61 61l7 0c33 0 60-27 60-61 0-33-27-60-60-60z m-7 92c-18 0-32-14-32-32 0-17 14-32 32-32l7 0c18 0 32 15 32 32 0 18-14 32-32 32z"/>
<glyph unicode="&#55;" d="M257 268c-18 0-34 7-46 19-26 26-26 67 0 93 12 12 28 19 46 19 17 0 34-7 46-19 26-26 26-67 0-93-12-12-29-19-46-19z m0 102c-10 0-19-4-26-11-15-14-15-37 0-52 7-7 16-11 26-11 10 0 19 4 26 11 14 15 14 38 0 52-7 7-16 11-26 11z m94-22c-3 0-6 2-7 6-1 2-1 3-1 5-1 2-1 2-1 3-2 4 0 8 4 10 3 1 7-1 9-4 1-2 1-4 2-6 0-1 0-3 1-5 1-4-2-8-5-9-1 0-2 0-2 0z m-13 31c-2 0-5 1-6 3-15 23-39 39-66 42-4 1-7 4-6 8 1 4 4 7 8 6 31-4 59-22 76-48 2-4 1-8-2-10-1-1-3-1-4-1z m-81-356c-12 0-35 6-53 42-21 42-101 216-101 271 0 84 69 153 153 153 84 0 153-69 153-153 0-54-79-231-99-271-14-27-33-42-53-42z m-1 437c-69 0-124-55-124-124 0-43 69-203 97-258 9-17 19-26 28-26 9 0 19 9 27 26 25 49 96 214 96 258 0 69-55 124-124 124z"/>
<glyph unicode="&#56;" d="M183 89c0-27-22-49-49-49l-65 0c-27 0-49 22-49 49l0 157c0 28 22 50 49 50l65 0c27 0 49-22 49-50z m-28 157c0 12-10 21-21 21l-65 0c-12 0-21-9-21-21l0-157c0-11 9-21 21-21l65 0c11 0 21 10 21 21z m-43-144c0-7-6-12-12-12l-4 0c-7 0-12 5-12 12l0 4c0 6 5 12 12 12l4 0c6 0 12-6 12-12z m178-63c-35 0-73 5-86 59 0 1 1 2 1 3l0 180c0 2-1 4 0 5l2 7c4 12 16 31 35 60 12 20 25 40 29 50 7 18 7 42 7 49-1 6 2 11 7 14 1 0 12 7 26 7 8 0 17-3 24-8 20-13 42-33 38-76-2-13-7-26-13-38-3-8-7-16-9-23 0-1 0-5 0-9 15-1 31-2 45-2 9 0 16 0 22 0 7 0 13 0 16 0 3 0 6 0 8 0 15-2 29-10 38-23 10-12 14-27 12-43-2-15-10-28-22-38 5-9 7-20 6-31-2-13-8-24-17-32 0-1 0-1 0-1 3-7 4-16 3-24-2-11-8-22-17-29 3-6 3-13 2-20-1-14-11-26-25-31-9-4-19-5-33-5-5 0-10 0-16 0-7 1-15 1-24 1-12 0-22-1-33-1-9 0-18-1-26-1z m-57 64c7-30 23-35 58-35 8 0 16 0 25 0 10 1 21 1 33 1 9 0 17 0 24 0 6 0 11 0 16 0 4 0 16 0 20 2 1 0 2 1 3 1 3 1 7 4 7 8 0 2 0 4-1 6-3 5-4 12-2 18 2 6 5 10 9 13 5 2 8 7 9 12 0 3 0 6-1 9-4 7-5 24 5 32 6 4 9 9 10 15 1 6-1 12-4 16-6 10-3 27 7 33 7 5 12 13 13 21 1 8-1 16-6 22-5 6-12 10-20 11-1 1-2 1-4 1 0 0-1 0-1 0-3 0-8 0-15 0-6 0-13 0-22 0-18 0-38 1-57 3l-4 0c-4 1-7 3-10 5-2 3-3 7-3 11 0 4 0 8 0 11 0 6 0 11 2 16 2 10 6 19 10 27 5 11 9 21 10 30 3 28-11 40-25 50-4 2-8 2-13 2 0-13-1-33-8-51-5-13-19-34-33-56-13-19-28-44-31-53 0-1 0-1 0-2l-1-4z m120-13c0 0 0 0 0 0-1 0-1-2-2-2-4 0-7 3-7 7 0 4 3 6 7 6 2 0 10 0 10-7 0-1-1 0-1-1-1-3-4-3-7-3z m-52-5c-17 0-32 3-45 19-3 3-3 7 0 10 3 2 8 2 10-1 14-16 29-15 54-13 4 0 7 0 11 0 4 1 7-2 7-6 0-4-2-7-6-8-4 0-7 0-11 0-7-1-13-1-20-1z"/>
<glyph unicode="&#57;" d="M243 238c-1 0-1 0-2 0-29 5-49 20-60 44-2 3 0 7 4 9 3 2 7 0 9-3 9-20 25-32 50-36 4-1 6-4 6-8-1-4-4-6-7-6z m17-57l-6 0c-78 0-147 73-147 154l0 139c0 8 7 13 15 13l270 0c8 0 13-5 13-13l0-139c0-81-67-154-145-154z m-125 278l0-124c0-65 57-125 119-125l6 0c62 0 117 60 117 125l0 124z m221-434l-206 0c-8 0-14 6-14 14 0 8 6 14 14 14l206 0c8 0 15-6 15-14 0-8-7-14-15-14z m-107 1c-8 0-14 7-14 15l0 156c0 8 6 14 14 14 8 0 14-6 14-14l0-156c0-8-6-15-14-15z m-127 278c-1 0-3 0-4 0-3 2-4 7-3 10 1 2 25 45 69 58 27 8 55 4 83-12 69-39 95-12 110 5 4 5 8 9 12 10 4 2 8 0 10-4 1-3-1-7-4-9-2 0-5-4-8-7-15-17-48-52-127-8-25 14-49 18-72 11-39-11-60-50-60-51-1-2-4-3-6-3z"/>
<glyph unicode="&#33;" d="M367 18l-206 0c-51 0-79 11-79 70l0 172c0 7 7 14 15 14l320 0c8 0 13-7 13-14l0-172c0-51-4-70-63-70z m-257 227l0-157c0-36 8-42 51-42l206 0c36 0 35 0 35 42l0 157z m36-113c-4 0-7 3-7 7l0 78c0 4 4 7 8 7l35 0c4 0 7-3 7-7 0-4-3-7-7-7l-29 0 0-71c0-4-3-7-7-7z m0-36c-4 0-7 3-7 7l0 7c0 4 3 7 7 7 4 0 7-3 7-7l0-7c0-4-3-7-7-7z m220 156c-8 0-14 7-14 15l0 104c0 51-40 95-89 95l0 0c-51 0-96-44-96-95l0-104c0-8-6-15-14-15-8 0-14 7-14 15l0 104c0 66 58 123 124 123l0 0c65 0 117-55 117-123l0-104c0-8-6-15-14-15z"/>
<glyph unicode="&#34;" d="M134 15c-24 0-46 10-62 26l-31 31c-16 16-26 38-26 62 0 23 10 45 26 62l275 275c17 16 39 26 62 26 24 0 46-10 62-26l31-31c16-16 26-38 26-62 0-23-10-45-26-62l-275-275c-17-16-39-26-62-26z m244 453c-15 0-30-6-42-17l-275-275c-11-12-17-27-17-42 0-16 6-31 17-42l31-31c11-11 26-17 42-17 15 0 30 6 42 17l275 275c11 12 17 27 17 42 0 16-6 31-17 42l-31 31c-11 11-26 17-42 17z m-23-203c-1 0-3 1-5 3l-76 77c-3 3-3 7 0 10 3 3 7 3 10 0l76-77c3-3 3-8 0-11-1-1-3-2-5-2z m-121-121c-1 0-3 1-5 3l-76 77c-3 3-3 7 0 10 3 3 7 3 10 0l77-77c2-3 2-8-1-10-1-2-3-3-5-3z m30 58c0-5-4-10-10-10-5 0-9 5-9 10 0 5 4 9 9 9 6 0 10-4 10-9z m50 57c0-5-5-10-10-10-5 0-9 5-9 10 0 5 4 9 9 9 5 0 10-4 10-9z m-100-7c0-6-4-10-9-10-5 0-10 4-10 10 0 5 5 9 10 9 5 0 9-4 9-9z m50 56c0-5-4-9-10-9-5 0-9 4-9 9 0 6 4 10 9 10 6 0 10-4 10-10z"/>
<glyph unicode="&#35;" d="M430 363l-348 0c-34 0-61 27-61 60 0 33 27 61 61 61l348 0c34 0 61-28 61-61 0-33-27-60-61-60z m-348 92c-18 0-32-14-32-32 0-18 14-32 32-32l348 0c18 0 32 14 32 32 0 18-14 32-32 32z m348-427l-348 0c-34 0-61 28-61 61 0 33 27 60 61 60l348 0c34 0 61-27 61-60 0-33-27-61-61-61z m-348 93c-18 0-32-14-32-32 0-18 14-32 32-32l348 0c18 0 32 14 32 32 0 18-14 32-32 32z m348 71l-348 0c-34 0-61 27-61 60 0 34 27 61 61 61l348 0c34 0 61-27 61-61 0-33-27-60-61-60z m-348 92c-18 0-32-14-32-32 0-17 14-32 32-32l348 0c18 0 32 15 32 32 0 18-14 32-32 32z"/>
<glyph unicode="&#36;" d="M487 81c0-27-22-49-49-49l-364 0c-27 0-49 22-49 49l0 350c0 27 22 49 49 49l364 0c27 0 49-22 49-49l0-350z m-28 350c0 11-10 21-21 21l-364 0c-11 0-21-10-21-21l0-350c0-11 10-21 21-21l364 0c11 0 21 10 21 21l0 350z m-423-300c-1 0-2 0-4 1-3 2-4 7-1 10l111 160c6 8 14 12 23 13 9 1 18-2 25-9l92-92c2-3 2-7 0-10-3-3-8-3-11 0l-91 92c-4 4-9 6-14 5-5 0-9-3-12-7l-112-160c-1-2-3-3-6-3z m402 2c-2 0-4 0-5 2l-8 8c-3 2-3 7-1 10 3 3 7 3 10 0l9-8c3-3 3-7 0-10-1-2-3-2-5-2z m-285-99c-1 0-3 1-4 2-3 2-4 6-1 10l143 192c6 8 14 13 23 14 9 0 18-3 25-9l78-74c3-3 3-7 0-10-2-3-7-3-10 0l-77 73c-4 4-9 6-14 5-6 0-10-3-13-7l-144-193c-1-2-3-3-6-3z m165 267c-34 0-61 28-61 62 0 33 27 61 61 61 34 0 62-28 62-61 0-34-28-62-62-62z m0 109c-26 0-47-21-47-47 0-26 21-48 47-48 26 0 48 22 48 48 0 26-22 47-48 47z"/>
<glyph unicode="&#37;" d="M235 88c0-35-29-63-64-63l-1 0c-35 0-63 28-63 63l0 336c0 35 28 63 63 63l1 0c35 0 64-28 64-63z m-29 336c0 19-16 35-35 35l-1 0c-19 0-35-16-35-35l0-335c0-20 16-36 35-36l1 0c19 0 35 16 35 36l0 335z m-50-58c-3 0-7 3-7 7l0 29c0 4 4 7 7 7 4 0 8-3 8-7l0-29c0-4-4-7-8-7z m0-21c-3 0-7 3-7 7l0 3c0 4 4 7 7 7 4 0 8-3 8-7l0-3c0-4-4-7-8-7z m249-257c0-35-28-63-63-63l-1 0c-35 0-64 28-64 63l0 336c0 35 29 63 64 63l1 0c35 0 63-28 63-63z m-28 336c0 19-16 35-35 35l-1 0c-19 0-35-16-35-35l0-335c0-20 16-36 35-36l1 0c19 0 35 16 35 36l0 335z"/>
<glyph unicode="&#38;" d="M487 71c0-28-22-50-49-50l-364 0c-27 0-49 22-49 50l0 370c0 28 22 50 49 50l364 0c27 0 49-22 49-50z m-28 370c0 12-10 21-21 21l-364 0c-11 0-21-9-21-21l0-370c0-12 10-21 21-21l364 0c11 0 21 9 21 21l0 370z m-337-275c-2 0-5 1-6 3-5 8-9 16-12 24-2 4 0 8 4 9 3 2 8 0 9-4 3-7 7-14 11-21 2-4 1-8-2-10-1-1-3-1-4-1z m131-74c-39 0-77 14-106 40-3 3-3 7-1 10 3 3 8 3 10 1 27-24 62-37 97-37 81 0 147 66 147 147 0 81-66 147-147 147-81 0-146-66-146-147 0-4-4-7-7-7-4 0-8 3-8 7 0 89 73 161 161 161 89 0 161-72 161-161 0-89-72-161-161-161z m-57 120c-22 0-41 18-41 41 0 23 19 42 41 42 23 0 42-19 42-42 0-23-19-41-42-41z m0 68c-15 0-27-12-27-27 0-15 12-27 27-27 15 0 28 12 28 27 0 15-13 27-28 27z m114-68c-23 0-41 18-41 41 0 23 18 42 41 42 23 0 42-19 42-42 0-23-19-41-42-41z m0 68c-15 0-27-12-27-27 0-15 12-27 27-27 15 0 27 12 27 27 0 15-12 27-27 27z"/>
<glyph unicode="&#39;" d="M441 71c0-28-22-50-49-50l-272 0c-27 0-49 22-49 50l0 328c0 27 22 49 49 49l272 0c27 0 49-22 49-49z m-29 328c0 11-9 21-20 21l-272 0c-11 0-20-10-20-21l0-328c0-12 9-21 20-21l272 0c11 0 20 9 20 21z m-53-328l-116 0c-4 0-7 3-7 7 0 4 3 7 7 7l116 0c11 0 18 14 18 35l0 22c0 4 3 7 7 7 4 0 7-3 7-7l0-22c0-30-12-49-32-49z m27 100c-2 0-4 1-5 2-2 1-2 3-2 5 0 2 0 4 2 5 2 3 7 3 10 0 1-1 2-3 2-5 0-2-1-4-2-5-2-1-3-2-5-2z m-244 199c-8 0-14 6-14 14l0 92c0 8 6 15 14 15 8 0 14-7 14-15l0-92c0-8-6-14-14-14z m78 0c-7 0-14 6-14 14l0 92c0 8 7 15 14 15 8 0 15-7 15-15l0-92c0-8-7-14-15-14z m79 0c-8 0-15 6-15 14l0 92c0 8 7 15 15 15 8 0 14-7 14-15l0-92c0-8-6-14-14-14z m78 0c-8 0-14 6-14 14l0 92c0 8 6 15 14 15 8 0 14-7 14-15l0-92c0-8-6-14-14-14z m51-57l-342 0c-4 0-7 3-7 7 0 4 3 7 7 7l342 0c3 0 7-3 7-7 0-4-4-7-7-7z"/>
<glyph unicode="&#40;" d="M256 57c-84 0-153 68-153 153 0 41 44 134 92 227 3 6 5 11 7 15 14 27 33 42 53 42 12 0 35-5 53-42 3-4 6-10 9-17 48-92 92-184 92-225 0-85-69-153-153-153z m-1 409c-9 0-19-10-27-26-2-5-5-10-8-16-24-47-88-174-88-214 0-69 55-125 124-125 69 0 124 56 124 125 0 40-62 161-88 212-4 7-7 13-9 18-9 16-19 26-28 26z m4-448c-8 0-15 6-15 14l0 36c0 8 7 14 15 14 8 0 14-6 14-14l0-36c0-8-6-14-14-14z m0 320c-4 0-7 3-7 7l0 7c0 4 3 7 7 7 4 0 7-3 7-7l0-7c0-4-3-7-7-7z m0-270c-4 0-7 3-7 7l0 249c0 4 3 7 7 7 4 0 7-3 7-7l0-249c0-4-3-7-7-7z m-3 53c-2 0-3 0-5 2-3 3-3 7 0 10l57 56c2 3 7 3 10 0 2-3 2-7 0-10l-57-56c-1-2-3-2-5-2z m-61 123c-2 0-4 0-5 2-1 1-2 3-2 5 0 2 1 4 2 5 3 2 8 2 10 0 2-1 2-3 2-5 0-2 0-4-2-5-1-2-3-2-5-2z m61-61c-2 0-4 1-5 2l-47 47c-2 2-2 7 0 10 3 2 8 2 10 0l47-47c3-3 3-7 0-10-1-1-3-2-5-2z m0 96c-2 0-3 1-5 2-3 3-3 7 0 10l45 44c2 3 7 3 10 0 2-2 2-7 0-10l-45-44c-1-1-3-2-5-2z"/>
<glyph unicode="&#41;" d="M173 21c-38 0-74 15-101 42l-4 5c-56 55-56 146 0 201l100 100c27 27 63 42 101 42 38 0 74-15 100-42l5-4c56-56 56-146 0-202l-100-100c-27-27-63-42-101-42z m96 362c-31 0-59-12-81-34l-100-100c-45-44-45-117 0-161l5-5c21-21 50-33 80-33 31 0 59 12 81 33l100 100c44 45 44 117 0 162l-5 4c-21 22-50 34-80 34z m-177-262c-3 0-5 1-6 3-27 39-20 81 22 121l22 22c3 3 7 3 10 0 3-3 3-7 0-10l-23-23c-36-34-42-69-19-101 2-4 1-8-2-10-2-1-3-2-4-2z m17-20c-2 0-4 0-5 2l-4 3c-2 3-2 7 0 10 3 3 8 3 10 0l4-3c2-3 2-8 0-10-2-2-4-2-5-2z m239 49c-1 0-2 0-3 1-139 71-188 185-190 189-1 4 0 8 4 10 4 1 8 0 9-4 1-1 49-114 183-183 4-1 5-6 3-9-1-3-4-4-6-4z m-79 112c-2 0-4 1-5 2-3 3-3 7 0 10l25 25c3 3 7 3 10 0 3-3 3-7 0-10l-25-25c-2-1-3-2-5-2z m99 74c-7 0-13 6-14 13 0 2-3 46 60 77 33 16 44 54 44 54 2 8 10 12 18 10 7-2 12-10 9-17 0-2-14-51-59-72-44-22-43-49-43-50 0-8-6-14-14-15 0 0 0 0-1 0z"/>
<glyph unicode="&#42;" d="M345 256c0 33 27 60 60 60 34 0 61-27 61-60 0-33-27-60-61-60-33 0-60 27-60 60z m92 0c0 18-14 32-32 32-17 0-32-14-32-32 0-18 15-32 32-32 18 0 32 14 32 32z m-241 0c0 33 27 60 60 60 33 0 60-27 60-60 0-33-27-60-60-60-33 0-60 27-60 60z m92 0c0 18-14 32-32 32-18 0-32-14-32-32 0-18 14-32 32-32 18 0 32 14 32 32z m-242 0c0 33 27 60 61 60 33 0 60-27 60-60 0-33-27-60-60-60-34 0-61 27-61 60z m93 0c0 18-15 32-32 32-18 0-32-14-32-32 0-18 14-32 32-32 17 0 32 14 32 32z"/>
<glyph unicode="&#43;" d="M279 24c-129 0-234 103-234 232 0 127 104 232 231 232 0 0 0 0 0 0 5 0 10-2 13-7 2-5 2-10-2-14-28-36-42-79-42-125 0-113 91-205 204-205l3 1c5 0 11-3 13-8 2-5 2-11-1-15-45-58-112-91-185-91z m-31 435c-98-15-174-100-174-202 0-113 92-205 205-205 54 0 105 21 143 59-116 13-206 112-206 231 0 42 11 82 32 117z m41-387c-93 0-172 67-189 159 0 4 2 8 6 8 4 1 8-2 9-5 14-86 88-147 174-147 4 0 8-4 8-7 0-4-4-8-8-8z m-184 174c-4 0-7 4-7 8 0 3 0 7 0 10 0 4 3 7 7 7 4 0 7-3 7-7 0-3 0-7 0-10 0-4-3-8-7-8 0 0 0 0 0 0z m219 111c0-7-6-13-13-13-7 0-12 6-12 13 0 7 5 13 12 13 7 0 13-6 13-13z m82 61c0-7-5-13-12-13-7 0-13 6-13 13 0 7 6 13 13 13 7 0 12-6 12-13z m-27-114c0-7-6-12-13-12-7 0-13 5-13 12 0 7 6 13 13 13 7 0 13-6 13-13z"/>
<glyph unicode="&#44;" d="M416 78c0-27-22-50-49-50l-222 0c-27 0-49 23-49 50l0 356c0 27 22 50 49 50l222 0c27 0 49-23 49-50l0-356z m-28 356c0 12-10 21-21 21l-222 0c-11 0-21-9-21-21l0-356c0-12 10-21 21-21l222 0c11 0 21 9 21 21l0 356z m13-313l-291 0c-4 0-7 3-7 7 0 4 3 7 7 7l291 0c4 0 8-3 8-7 0-4-4-7-8-7z m0 284l-291 0c-4 0-7 4-7 7 0 4 3 8 7 8l291 0c4 0 8-4 8-8 0-3-4-7-8-7z m-127-314c0-7-6-13-13-13l-3 0c-7 0-13 6-13 13l0 3c0 7 6 13 13 13l3 0c7 0 13-6 13-13z m14 188c-1 0-1 0-2 0-4 2-6 6-5 9l2 6c2 4 6 6 9 4 4-1 6-5 5-9l-2-5c-1-3-4-5-7-5z m-27-77c-1 0-2 0-2 0-4 1-6 6-5 9l20 58c2 3 6 5 10 4 3-1 5-5 4-9l-20-57c-1-3-4-5-7-5z m-29 53c-1 0-1 1-2 1-4 1-6 5-4 9l29 84c1 4 5 6 9 4 4-1 6-5 4-9l-29-84c-1-3-4-5-7-5z m-14-39c0 0-1 0-2 0-4 2-6 6-4 9l4 13c1 4 5 5 9 4 4-1 6-5 4-9l-4-12c-1-3-4-5-7-5z"/>
<glyph unicode="&#45;" d="M256 128c-49 0-89 40-89 89l0 185c0 49 40 89 89 89 49 0 89-40 89-89l0-185c0-49-40-89-89-89z m0 334c-33 0-60-27-60-60l0-185c0-33 27-61 60-61 33 0 60 28 60 61l0 185c0 33-27 60-60 60z m-39-121c-4 0-7 4-7 7l0 61c0 19 12 32 34 32l6 0c4 0 7-3 7-7 0-4-3-7-7-7l-6 0c-5 0-20-2-20-18l0-61c0-3-3-7-7-7z m0-28c-4 0-7 3-7 7l0 7c0 4 3 7 7 7 4 0 7-3 7-7l0-7c0-4-3-7-7-7z m40-242l-2 0c-84 0-152 71-152 155l0 9c0 8 6 14 14 14 8 0 15-6 15-14l0-9c0-67 56-126 123-126l2 0c65 0 123 58 123 126l0 9c0 8 7 14 15 14 8 0 14-6 14-14l0-9c0-85-70-155-152-155z m57-50l-121 0c-8 0-14 7-14 15 0 7 6 14 14 14l121 0c8 0 14-7 14-14 0-8-6-15-14-15z m-62 15c-7 0-14 6-14 14l0 35c0 8 7 15 14 15 8 0 15-7 15-15l0-35c0-8-7-14-15-14z"/>
<glyph unicode="&#46;" d="M198 27c-2 0-4 0-6 1-5 3-8 8-8 13l1 53-35 0c-27 0-47 23-47 50l0 186c0 27 20 49 47 49l285 0c27 0 52-22 52-49l0-186c0-27-25-50-52-50l-138 0-91-65c-2-1-5-2-8-2z m-48 323c-12 0-18-9-18-20l0-186c0-12 6-21 18-21l50 0c4 0 7-2 10-5 3-2 4-6 4-10l-1-39 71 51c3 2 5 3 8 3l143 0c11 0 24 9 24 21l0 186c0 11-12 20-24 20z m-102-138c-4 0-6 1-9 4-10 9-14 21-14 35l0 186c0 27 19 48 46 48l286 0c27 0 52-21 52-48l0-9c0-7-6-14-14-14-8 0-15 7-15 14l0 9c0 11-11 20-23 20l-286 0c-11 0-18-9-18-20l0-186c0-6 1-10 5-14 6-5 6-14 1-20-3-3-8-5-11-5z m195 74l-57 0c-4 0-7 3-7 7 0 4 3 7 7 7l57 0c4 0 7-3 7-7 0-4-3-7-7-7z m99 0l-71 0c-4 0-7 3-7 7 0 4 3 7 7 7l71 0c4 0 7-3 7-7 0-4-3-7-7-7z m57 0l-28 0c-4 0-7 3-7 7 0 4 3 7 7 7l28 0c4 0 7-3 7-7 0-4-3-7-7-7z m-185-35l-28 0c-4 0-7 3-7 7 0 4 3 7 7 7l28 0c4 0 7-3 7-7 0-4-3-7-7-7z m86 0l-57 0c-4 0-7 3-7 7 0 4 3 7 7 7l57 0c3 0 7-3 7-7 0-4-4-7-7-7z m99 0l-71 0c-4 0-7 3-7 7 0 4 3 7 7 7l71 0c4 0 7-3 7-7 0-4-3-7-7-7z m-142-43l-71 0c-4 0-7 3-7 7 0 4 3 7 7 7l71 0c4 0 7-3 7-7 0-4-3-7-7-7z m99 0l-71 0c-4 0-7 3-7 7 0 4 3 7 7 7l71 0c4 0 8-3 8-7 0-4-4-7-8-7z m43 0l-14 0c-4 0-7 3-7 7 0 4 3 7 7 7l14 0c4 0 7-3 7-7 0-4-3-7-7-7z m-185-36l-28 0c-4 0-7 4-7 8 0 3 3 7 7 7l28 0c4 0 7-4 7-7 0-4-3-8-7-8z m78 0l-49 0c-4 0-7 4-7 8 0 3 3 7 7 7l49 0c4 0 8-4 8-7 0-4-4-8-8-8z"/>
<glyph unicode="&#47;" d="M430 363l-348 0c-34 0-61 27-61 60 0 33 27 61 61 61l348 0c34 0 61-28 61-61 0-33-27-60-61-60z m-348 92c-18 0-32-14-32-32 0-18 14-32 32-32l348 0c18 0 32 14 32 32 0 18-14 32-32 32z m291-427l-291 0c-34 0-61 28-61 61 0 33 27 60 61 60l291 0c34 0 61-27 61-60 0-33-27-61-61-61z m-291 93c-18 0-32-14-32-32 0-18 14-32 32-32l291 0c18 0 32 14 32 32 0 18-14 32-32 32z m206 71l-206 0c-34 0-61 27-61 60 0 34 27 61 61 61l206 0c33 0 60-27 60-61 0-33-27-60-60-60z m-206 92c-18 0-32-14-32-32 0-17 14-32 32-32l206 0c18 0 32 15 32 32 0 18-14 32-32 32z"/>
<glyph unicode="&#58;" d="M256 345c-33 0-60 27-60 60 0 34 27 61 60 61 33 0 60-27 60-61 0-33-27-60-60-60z m0 92c-18 0-32-14-32-32 0-17 14-32 32-32 18 0 32 15 32 32 0 18-14 32-32 32z m0-241c-33 0-60 27-60 60 0 33 27 60 60 60 33 0 60-27 60-60 0-33-27-60-60-60z m0 92c-18 0-32-14-32-32 0-18 14-32 32-32 18 0 32 14 32 32 0 18-14 32-32 32z m0-242c-33 0-60 27-60 61 0 33 27 60 60 60 33 0 60-27 60-60 0-34-27-61-60-61z m0 93c-18 0-32-15-32-32 0-18 14-32 32-32 18 0 32 14 32 32 0 17-14 32-32 32z"/>
<glyph unicode="&#59;" d="M340 210c-4 0-7-1-10 2l-117 116c-6 6-6 14 0 20l123 123c10 10 25 16 40 16 15 0 28-5 38-15l59-59c9-10 15-24 16-40 0-15-5-30-15-40l-124-121c-2-3-6-2-10-2z m-97 127l97-97 113 113c5 5 7 12 7 20 0 7-3 15-8 20l-59 59c-4 4-10 6-17 6-8 0-15-3-20-8z m54 12c-2 0-4 0-5 2-3 2-3 7 0 10l3 2c2 3 7 3 10 0 2-2 2-7 0-10l-3-2c-2-2-3-2-5-2z m17 16c-2 0-4 1-5 2-3 3-3 8 0 10l46 47c11 11 29 11 40 1l30-31c3-2 3-7 0-10-3-3-7-3-10 0l-30 30c-5 5-15 5-20 0l-46-47c-2-1-4-2-5-2z m-20-340c-4 0-7 1-10 4-14 14-34 35-58 58-59 61-141 143-198 199-3 2-5 6-5 10 0 4 2 7 4 10 55 55 137 72 209 44 8-3 11-11 8-18-2-7-11-11-18-8-57 22-122 11-168-28 57-56 132-132 189-189 18-18 34-34 47-47 37 44 49 105 30 161-2 7 2 15 9 18 8 2 16-2 18-9 24-71 6-148-47-201-2-3-6-4-10-4z m-251 9c-4 0-7 1-10 4-6 5-6 14 0 20l122 120c6 6 15 6 20 0 6-5 6-14 0-20l-122-120c-3-3-7-4-10-4z"/>
<glyph unicode="&#60;" d="M256 27c-127 0-229 102-229 229 0 127 102 229 229 229 61 0 119-23 162-67 44-43 67-101 67-162 0-61-23-119-67-162-43-44-101-67-162-67z m0 430c-111 0-201-90-201-201 0-111 90-201 201-201 54 0 104 21 142 59 38 38 59 88 59 142 0 54-21 104-59 142-38 38-88 59-142 59z m0-423c-76 0-137 99-137 222 0 123 61 222 137 222 76 0 137-99 137-222 0-123-61-222-137-222z m0 430c-68 0-123-93-123-208 0-115 55-208 123-208 68 0 123 93 123 208 0 115-55 208-123 208z m0-156c-98 0-174 35-174 80 0 4 3 7 7 7 4 0 7-3 7-7 0-36 73-66 160-66 87 0 160 30 160 66 0 4 3 7 7 7 4 0 7-3 7-7 0-45-76-80-174-80z m167-199c-4 0-7 3-7 7 0 35-73 66-160 66-87 0-160-31-160-66 0-4-3-7-7-7-4 0-7 3-7 7 0 45 76 80 174 80 98 0 174-35 174-80 0-4-3-7-7-7z m-166-76c-3 0-7 4-7 8l0 433c0 4 4 7 7 7 4 0 8-3 8-7l0-433c0-4-4-8-8-8z m215 211l-285 0c-4 0-7 3-7 7 0 4 3 7 7 7l285 0c4 0 7-3 7-7 0-4-3-7-7-7z m-320 0l-107 0c-4 0-7 3-7 7 0 4 3 7 7 7l107 0c4 0 7-3 7-7 0-4-3-7-7-7z"/>
<glyph unicode="&#61;" d="M413 28l-313 0c-54 0-72 21-72 76l0 308c0 54 16 72 72 72l242 0c4 0 7-2 9-4l126-102c3-2 7-6 7-11l0-263c0-51-13-76-71-76z m-313 427c-40 0-43-5-43-43l0-308c0-40 5-47 43-47l313 0c36 0 42 4 42 47l0 257-118 94z m248-149l-182 0c-17 0-31 4-31 31l0 125c0 4 3 7 7 7 4 0 7-3 7-7l0-125c0-13 0-17 17-17l182 0c12 0 15 0 15 17l0 104c0 4 3 7 7 7 4 0 7-3 7-7l0-104c0-20-4-31-29-31z m-42 57c-8 0-14 6-14 14l0 43c0 7 6 14 14 14 8 0 14-7 14-14l0-43c0-8-6-14-14-14z m-102-157l-57 0c-4 0-7 3-7 7 0 4 3 7 7 7l57 0c4 0 7-3 7-7 0-4-3-7-7-7z m99 0l-71 0c-4 0-7 3-7 7 0 4 3 7 7 7l71 0c4 0 7-3 7-7 0-4-3-7-7-7z m57 0l-28 0c-4 0-8 3-8 7 0 4 4 7 8 7l28 0c4 0 7-3 7-7 0-4-3-7-7-7z m-185-35l-28 0c-4 0-7 3-7 7 0 4 3 7 7 7l28 0c4 0 7-3 7-7 0-4-3-7-7-7z m85 0l-56 0c-4 0-8 3-8 7 0 4 4 7 8 7l56 0c4 0 8-3 8-7 0-4-4-7-8-7z m100 0l-71 0c-4 0-7 3-7 7 0 4 3 7 7 7l71 0c4 0 7-3 7-7 0-4-3-7-7-7z m-142-43l-71 0c-4 0-7 3-7 7 0 4 3 7 7 7l71 0c4 0 7-3 7-7 0-4-3-7-7-7z m50 0l-22 0c-4 0-7 3-7 7 0 4 3 7 7 7l22 0c4 0 7-3 7-7 0-4-3-7-7-7z"/>
<glyph unicode="&#62;" d="M357 21l-213 0c-52 0-69 10-69 69l0 230c0 8 6 14 14 14 8 0 14-6 14-14l0-230c0-38-1-40 41-40l213 0c40 0 45 1 45 40l0 230c0 8 6 14 14 14 8 0 14-6 14-14l0-230c0-55-18-69-73-69z m-5 377c-8 0-14 7-14 14l0 5c0 41-8 45-45 45l-85 0c-39 0-41-5-41-45l0-5c0-7-6-14-14-14-8 0-14 7-14 14l0 5c0 55 14 74 69 74l85 0c59 0 73-24 73-74l0-5c0-7-6-14-14-14z m-185-306c-4 0-7 4-7 8l0 14c0 4 3 7 7 7 4 0 7-3 7-7l0-14c0-4-3-8-7-8z m0 50c-4 0-7 3-7 7l0 121c0 4 3 7 7 7 4 0 7-3 7-7l0-121c0-4-3-7-7-7z m85-50c-3 0-7 4-7 8l0 170c0 4 4 7 7 7 4 0 8-3 8-7l0-170c0-4-4-8-8-8z m86 0c-4 0-7 4-7 8l0 170c0 4 3 7 7 7 4 0 7-3 7-7l0-170c0-4-3-8-7-8z m149 272c0-32-26-58-59-58l-344 0c-33 0-59 26-59 58l0 4c0 32 26 59 59 59l344 0c33 0 59-27 59-59z m-28 4c0 17-14 30-31 30l-344 0c-17 0-31-13-31-30l0-4c0-16 14-30 31-30l344 0c17 0 31 14 31 30z"/>
<glyph unicode="&#63;" d="M484 316c0-27-23-49-50-49l-356 0c-27 0-50 22-50 49l0 122c0 27 23 49 50 49l356 0c27 0 50-22 50-49z m-29 122c0 11-9 21-21 21l-356 0c-12 0-21-10-21-21l0-122c0-12 9-21 21-21l356 0c12 0 21 9 21 21l0 122z m29-364c0-27-23-49-50-49l-356 0c-27 0-50 22-50 49l0 122c0 27 23 49 50 49l356 0c27 0 50-22 50-49l0-122z m-29 122c0 12-9 21-21 21l-356 0c-12 0-21-9-21-21l0-122c0-11 9-21 21-21l356 0c12 0 21 10 21 21l0 122z m-370 177c-4 0-7 4-7 7l0 13c0 20 17 37 35 37l44 0c4 0 7-3 7-7 0-4-3-7-7-7l-44 0c-11 0-21-12-21-23l0-13c0-3-3-7-7-7z m1-24c-2 0-4 1-5 2-1 1-2 3-2 5 0 2 1 4 2 5 3 3 8 3 10 0 2-1 2-3 2-5 0-2 0-4-2-5-1-1-3-2-5-2z"/>
<glyph unicode="&#64;" d="M200 135c-96 0-174 79-174 175 0 96 78 174 174 174 96 0 174-78 174-174 0-96-78-175-174-175z m0 320c-80 0-146-65-146-145 0-81 66-146 146-146 80 0 146 65 146 146 0 80-66 145-146 145z m-103-91c-1 0-2 0-4 1-3 2-4 6-2 9 23 39 65 62 109 62 4 0 7-3 7-7 0-4-3-7-7-7-39 0-77-21-97-55-1-2-4-3-6-3z m-17-57c-4 0-7 3-7 7 0 10 1 15 4 25 0 3 4 6 8 5 4-1 6-5 5-9-2-8-3-13-3-21 0-4-3-7-7-7z m364-279c-12 0-23 5-31 13l-114 114c-9 9-12 20-9 31 3 9 10 17 16 23 8 8 18 17 31 17 6 0 14-2 22-10l115-115c8-8 12-19 12-30 0-12-4-22-12-30-8-8-19-13-30-13z m-127 149c0 0 1 0 2-1l114-115c6-6 15-6 21 0 2 2 4 6 4 10 0 4-2 7-4 10l-115 115c-1 1-2 1-2 1 0 0-3 0-11-8-8-9-9-11-9-12z"/>
<glyph unicode="&#91;" d="M341 29c-14 0-29 7-43 20l-249 249c-17 17-24 37-19 55 5 17 20 31 44 37l339 91c25 6 48 1 60-16 11-13 13-32 7-52l-90-339c-8-29-26-45-49-45z m93 426c-4 0-9-1-14-2l-339-91c-13-3-21-9-23-17-2-7 2-17 12-27l248-249c8-8 16-12 23-12 14 0 20 17 22 24l90 339c3 12 2 22-2 28-5 6-12 7-17 7z m-65-270c-1 0-1 0-2 0-4 1-6 5-5 9l1 2c1 4 5 6 8 5 4-1 7-4 6-8l-1-3c-1-3-4-5-7-5z m-20-77c0 0-1 1-2 1-3 1-6 5-5 8l15 59c1 4 5 6 9 5 4-1 6-5 5-9l-15-58c-1-3-4-6-7-6z m-163 59c-3 0-7 1-10 4-5 6-5 15 0 20l96 96c5 5 14 5 20 0 5-6 5-15 0-20l-96-96c-3-3-6-4-10-4z"/>
<glyph unicode="&#93;" d="M109 22c-29 0-49 23-49 58l0 352c0 35 20 58 49 58 11 0 23-4 34-10l277-176c21-12 32-29 32-48 0-19-11-36-32-48l-276-175c-12-8-24-11-35-11z m0 439c-19 0-21-20-21-29l0-352c0-9 2-30 21-30 6 0 13 3 20 7l276 175c12 7 19 16 19 24 0 8-7 17-19 23l-276 176c-7 4-14 6-20 6z m141-297c-2 0-5 1-6 3-2 4-1 8 2 10l4 2c3 3 8 2 10-2 2-3 1-8-2-10l-4-2c-1-1-3-1-4-1z m-104-66c-2 0-5 2-6 4-2 3-1 7 2 9l80 51c3 2 8 1 10-3 2-3 1-7-3-9l-79-51c-2 0-3-1-4-1z"/>
<glyph unicode="&#94;" d="M490 267c0-28-22-50-49-50l-65 0c-27 0-49 22-49 50l0 157c0 27 22 49 49 49l65 0c27 0 49-22 49-49z m-28 157c0 12-10 21-21 21l-65 0c-12 0-21-9-21-21l0-157c0-12 9-21 21-21l65 0c11 0 21 9 21 21z m-36-16c0-7-5-13-12-13l-4 0c-7 0-12 6-12 13l0 3c0 7 5 13 12 13l4 0c7 0 12-6 12-13z m-222-369c-9 0-17 2-25 7-20 13-42 34-37 76 1 14 7 26 12 38 4 8 7 16 9 23 0 1 0 5 0 9-15 1-31 2-45 2-9 0-16 0-22 0-7 0-13 0-16 0-3 0-5 0-8 1-15 2-29 10-38 22-10 12-14 28-12 43 2 15 10 29 22 38-5 10-7 21-6 31 2 13 8 24 17 33 0 0 0 0 0 0-3 8-4 16-3 24 2 12 8 22 17 29-3 7-4 13-3 20 2 14 12 26 25 31 8 4 19 5 32 5 5 0 10 0 16 0 7 0 15-1 24-1 11 0 22 1 32 1 9 0 18 1 26 1 34 0 71-5 84-58 1-2 0-3 0-4l0-180c0 0 1 0 1-1l-1-7c0-1 0-2 0-3-4-13-18-36-34-61-12-20-24-40-28-50-7-18-7-41-7-49 1-5-2-11-6-13-2-1-12-7-26-7z m-86 184c18 0 38-2 57-4l4 0c4 0 8-2 10-5 2-3 4-7 3-11 0-3 0-7 0-11 0-6 0-11-2-16-2-10-6-19-10-27-5-11-9-21-10-30-3-28 11-40 25-49 4-3 9-3 13-2 0 12 1 32 8 50 5 13 18 33 31 55 12 19 26 43 30 53l0 5 0 177c-7 30-23 35-57 35-7 0-15 0-24 0-11-1-21-1-33-1-9 0-17 0-25 0-5 0-10 0-15 0-4 0-15 0-19-2-1 0-2-1-3-1-4-1-6-4-7-8 0-2 1-4 2-6 3-5 3-12 2-18-2-5-5-10-9-12-5-3-8-8-9-13 0-3 0-6 2-9 3-7 4-24-6-32-6-3-9-9-10-15 0-6 1-11 4-16 6-10 3-27-7-33-7-5-11-12-13-21-1-8 2-16 6-22 5-6 12-9 20-10 1 0 3 0 4 0 0 0 1 0 1 0 3 0 8-1 15-1 6 1 13 0 22 0z m45 187c-2 0-9 0-10 7 0 1 1 2 1 3 1 3 4 4 7 4 1 0 1 0 2 0 4 0 7-3 7-7 0-4-3-7-7-7z m90-14c-2 0-4 0-5 2-14 16-29 15-54 13-4 0-7 0-11 0-3-1-7 2-7 6 0 4 3 8 7 8 3 0 6 0 10 1 26 1 47 3 66-19 2-3 2-7-1-10-2-1-3-1-5-1z"/>
<glyph unicode="&#95;" d="M306 62l-178 0c-63 0-114 51-114 115 0 39 21 76 54 97 3 33 28 59 61 63 31 69 99 113 176 113 106 0 193-87 193-193 0-104-84-191-187-194-2-1-4-1-5-1z m-169 247c-22 0-41-19-41-41l0-2c0-5-3-10-8-13-27-15-45-45-45-76 0-48 38-87 85-87l174 0c2 1 4 1 5 1 89 1 162 76 162 166 0 91-74 165-164 165-68 0-128-41-153-104-3-5-8-9-14-9 0 0-1 0-1 0z m296-48c-4 0-8 4-8 8 0 3 0 7 0 11-1 4 2 7 6 8 4 0 8-3 8-7 0-4 1-8 1-12 0-4-3-8-7-8 0 0 0 0 0 0z m-14 55c-3 0-5 1-6 3-19 34-54 55-92 55-4 0-7 3-7 7 0 4 3 7 7 7 43 0 83-24 104-62 2-3 1-8-3-10-1 0-2 0-3 0z m-153-182c-17 0-32 9-38 24-1 4 0 8 4 9 3 2 7 0 9-4 4-10 14-15 25-15 14 0 27 12 27 28l0 28c0 4-2 7 2 7l31 0c5 0 9 2 10 4 1 3 0 7-4 11l-54 70c-3 5-8 8-13 8l0 0c-5 0-10-3-13-7l-54-71c-3-4-5-8-3-11 1-2 4-4 9-4l27 0c4 0 7-3 7-7 0-4-3-7-7-7l-27 0c-10 0-18 4-22 12-4 7-2 17 5 26l54 71c6 8 15 12 24 12l0 0c9 0 18-5 25-13l54-70c6-9 8-18 5-26-4-8-12-12-23-12l-19 0 0-21c0-24-19-42-41-42z m-31 43c-2 0-4 1-5 3-2 1-2 3-2 5 0 1 0 3 2 5 2 2 7 2 10 0 1-2 2-4 2-5 0-2-1-4-2-5-2-2-3-3-5-3z"/>
<glyph unicode="&#96;" d="M254 191c-37 0-66 29-66 65 0 36 29 65 66 65 36 0 65-29 65-65 0-36-29-65-65-65z m0 102c-21 0-37-17-37-37 0-20 16-37 37-37 20 0 36 17 36 37 0 20-16 37-36 37z m1-268l-1 0c-26 0-49 19-58 47-11 3-22 8-32 13-11-6-22-9-34-9-15 0-29 5-39 15l-1 2c-18 18-21 48-7 73-5 10-9 21-13 33-27 8-45 31-45 56l0 1c0 26 18 49 45 57 4 12 8 24 14 34-14 25-12 54 6 72l1 1c10 10 25 16 41 16 11 0 23-3 33-8 10 5 20 9 30 12 7 27 31 47 59 47l1 0c28 0 50-19 57-47 10-3 21-8 30-13 10 6 22 9 33 9 16 0 31-6 42-17l1-1c20-19 22-49 7-73 5-10 10-20 14-30 27-7 48-30 48-59l0-1c0-28-21-51-48-58-3-9-8-19-13-29 15-24 12-55-8-75l-1-1c-11-11-25-17-40-17l0 0c-12 0-23 4-33 10-11-6-22-10-33-14-8-27-30-46-56-46z m-92 91c3 0 5-1 8-2 13-8 26-13 41-17 5-2 9-6 10-12 3-18 17-32 32-32l1 0c17 0 28 16 30 32 1 6 5 10 10 12 15 4 29 10 42 17 5 3 12 3 16-1 8-6 16-9 24-9 7 0 14 3 19 8l1 1c12 12 12 32 1 46-4 4-4 11-1 16 7 13 13 26 16 39 2 5 7 10 13 10 19 2 33 15 33 31l0 2c0 16-14 29-33 31-6 0-11 5-13 10-3 14-9 27-17 41-3 5-2 11 2 16 11 14 12 32 0 43l0 1c-6 6-14 9-23 9-8 0-16-3-23-8-4-4-11-5-16-2-13 8-26 13-40 17-6 2-10 7-11 12-1 19-14 32-30 32l-1 0c-16 0-30-14-32-32-1-6-5-10-11-12-14-4-27-9-39-16-5-3-11-3-16 1-7 5-16 8-24 8-9 0-16-3-21-8l-1-1c-12-11-8-30 1-43 4-5 4-11 1-16-7-12-13-26-17-42-2-6-5-10-11-11-18-3-31-16-31-31l0-1c0-14 13-27 31-30 6-1 10-5 11-11 4-15 10-29 17-41 3-5 2-11-1-15-11-15-11-35 0-46l1-1c6-6 13-7 18-7 8 0 17 3 25 9 3 2 5 3 8 3z m212 179c-3 0-6 2-7 5-18 47-64 78-114 78-4 0-7 4-7 7 0 4 3 8 7 8 56 0 107-36 127-88 2-4 0-8-4-9-1-1-1-1-2-1z m-240-102c-3 0-5 1-6 3-2 2-2 4-4 7 0 2-1 4-2 6-1 4 1 8 4 10 4 1 8-1 9-5 1-2 2-4 3-6 1-3 1-4 2-5 2-3 1-7-3-9-1-1-2-1-3-1z m116-71c-41 0-79 17-105 48-2 3-2 8 1 10 3 3 8 2 10-1 23-27 58-43 94-43 4 0 7-3 7-7 0-4-3-7-7-7z"/>
<glyph unicode="&#123;" d="M217 39c-12 11-18 27-18 43l0 117-117 0c-16 0-32 6-43 18-11 11-18 26-18 43 0 16 7 31 18 42 11 12 27 18 43 18l117 0 0 110c0 16 6 32 18 43 11 11 26 18 43 18 16 0 31-7 42-18 12-11 18-27 18-43l0-110 110 0c16 0 32-6 43-18 11-11 18-26 18-42 0-17-7-32-18-43-11-12-27-18-43-18l-110 0 0-117c0-16-6-32-18-43-11-11-26-18-42-18-17 0-32 7-43 18z m6 184c3-2 5-6 5-10l0-131c0-9 3-17 9-23 6-6 14-9 23-9 8 0 16 3 22 9 6 6 10 14 10 23l0 131c0 8 6 15 14 15l124 0c9 0 17 3 23 9 6 6 9 14 9 23 0 8-3 16-9 22-6 6-14 10-23 10l-124 0c-8 0-14 6-14 14l0 124c0 9-4 17-10 23-6 6-14 9-22 9-9 0-17-3-23-9-6-6-9-14-9-23l0-124c0-8-7-14-15-14l-131 0c-9 0-17-4-23-10-6-6-9-14-9-22 0-9 3-17 9-23 6-6 14-9 23-9l131 0c4 0 8-2 10-5z"/>
<glyph unicode="&#124;" d="M487 78c0-27-22-50-49-50l-364 0c-27 0-49 23-49 50l0 264c0 27 22 49 49 49l364 0c27 0 49-22 49-49l0-264z m-28 264c0 11-10 21-21 21l-364 0c-11 0-21-10-21-21l0-264c0-12 10-21 21-21l364 0c11 0 21 9 21 21l0 264z m-143 21c-7 0-14 6-14 14l0 62c0 13-17 16-26 16l-50 0c-3 0-16 0-16-16l0-62c0-8-7-14-14-14-8 0-15 6-15 14l0 62c0 26 15 45 45 45l50 0c29 0 55-19 55-45l0-62c0-8-7-14-15-14z m-105-157l-93 0c-4 0-7 3-7 7 0 4 3 7 7 7l93 0c4 0 7-3 7-7 0-4-3-7-7-7z m-135 0l-36 0c-4 0-7 3-7 7 0 4 3 7 7 7l36 0c4 0 7-3 7-7 0-4-3-7-7-7z m398 0l-178 0c-4 0-7 3-7 7 0 4 3 7 7 7l178 0c4 0 7-3 7-7 0-4-3-7-7-7z m-172-14c0-15-13-28-29-28l-34 0c-16 0-29 13-29 28l0 35c0 16 13 29 29 29l34 0c16 0 29-13 29-29l0-35z m-14 35c0 8-7 15-15 15l-34 0c-8 0-15-7-15-15l0-35c0-8 7-14 15-14l34 0c8 0 15 6 15 14l0 35z"/>
<glyph unicode="&#125;" d="M375 302c-50 0-90 40-90 90 0 49 40 89 90 89 49 0 89-40 89-89 0-50-40-90-89-90z m0 150c-34 0-61-27-61-60 0-34 27-61 61-61 33 0 60 27 60 61 0 33-27 60-60 60z m-33-46c-2 0-3 1-4 2-3 2-4 6-2 10 9 13 23 20 39 20 4 0 7-3 7-7 0-4-3-7-7-7-11 0-21-5-27-14-2-2-4-4-6-4z m-209-235c-55 0-100 45-100 100 0 55 45 100 100 100 55 0 100-45 100-100 0-55-45-100-100-100z m0 171c-39 0-72-32-72-71 0-40 33-72 72-72 39 0 71 32 71 72 0 39-32 71-71 71z m-45-78c-4 0-7 3-7 7l-1 1c0 2 0 3 1 6 1 4 4 6 8 5 4 0 7-4 6-8 0-1 0-1 0-2 0-1 0-1 0-2 0-4-3-7-7-7z m7 25c-1 0-2 0-4 1-3 2-4 7-2 10 10 14 26 23 44 23 4 0 7-3 7-7 0-4-3-7-7-7-13 0-25-7-32-17-1-2-3-3-6-3z m273-258c-62 0-112 50-112 112 0 61 50 111 112 111 61 0 111-50 111-111 0-62-50-112-111-112z m0 195c-46 0-83-38-83-83 0-46 37-83 83-83 45 0 83 37 83 83 0 45-38 83-83 83z m-50-55c-2 0-3 1-4 1-3 3-4 7-2 10 11 17 29 26 48 26 4 0 8-3 8-7 0-4-4-7-8-7-14 0-28-7-36-20-2-2-4-3-6-3z m-7 198l11-26-117-50-11 26z m-106-140l78-38-12-25-78 38z"/>
<glyph unicode="&#126;" d="M257 191c-68 0-117 122-117 186 0 65 52 117 117 117 64 0 116-52 116-117 0-64-49-186-116-186z m0 275c-49 0-89-40-89-89 0-55 46-158 89-158 43 0 88 103 88 158 0 49-40 89-88 89z m-60-99c-4 0-7 3-7 7 0 39 32 71 71 71 4 0 7-3 7-7 0-4-3-7-7-7-32 0-57-26-57-57 0-4-3-7-7-7z m2-28c-2 0-3 1-5 3-1 1-2 3-2 5 0 1 1 3 2 5 3 2 8 2 10 0 2-2 3-4 3-5 0-2-1-4-3-5-1-2-3-3-5-3z m57-321c-40 0-171 4-171 57 0 75 50 144 121 166l9 2 6-6c22-25 48-26 71 0l6 7 9-3c71-22 120-91 120-166 0-53-131-57-171-57z m-50 193c-55-21-93-76-93-136 0-8 44-29 143-29 99 0 143 21 143 29 0 60-38 115-93 136-15-14-32-22-49-22-18 0-36 8-51 22z"/>
<glyph unicode="&#92;" d="M120 315c-49 0-88 40-88 88 0 49 39 89 88 89 49 0 88-40 88-89 0-48-39-88-88-88z m0 148c-33 0-60-27-60-60 0-33 27-59 60-59 33 0 60 26 60 59 0 33-27 60-60 60z m-39-67c-4 0-7 3-7 7l0 2c0 1 0 2 0 5 1 4 4 6 8 5 4 0 7-4 6-8 0-1 0-1 0-2l0-2c0-4-3-7-7-7z m6 22c-1 0-2 0-4 1-3 2-4 7-2 10 9 13 23 21 39 21 4 0 7-4 7-7 0-4-3-8-7-8-11 0-21-5-27-14-1-2-3-3-6-3z m232-103c-49 0-88 40-88 88 0 49 39 89 88 89 49 0 88-40 88-89 0-48-39-88-88-88z m0 148c-33 0-60-27-60-60 0-33 27-59 60-59 33 0 60 26 60 59 0 33-27 60-60 60z m-33-45c-1 0-2 0-3 1-4 2-5 7-2 10 8 13 23 21 38 21 4 0 7-4 7-7 0-4-3-8-7-8-11 0-21-5-27-14-1-2-3-3-6-3z m42-398l-264 0c-27 0-50 18-50 45l0 186c0 27 24 54 50 54l264 0c28 0 50-24 50-52 0 0 0-1 0-2l-1-5c21 11 53 28 76 40 7 3 13 5 19 5 7 0 13-3 18-7 9-9 8-23 8-28l0-193c0-8-1-14-5-19-3-4-9-9-19-9 0 0 0 0 0 0-6 0-12 1-19 3-1 1-2 1-3 1-27 15-56 30-75 39l1-11c0-1 0 1 0 0 0-27-22-47-50-47z m-264 256c-11 0-21-13-21-25l0-186c0-11 9-16 21-16l264 0c12 0 21 7 21 18l-2 34c0 4 1 8 4 11 3 2 6 4 10 4 5 0 8 0 104-51 1 0 3-1 5-1l0 192c0 3 0 5 0 6-1 0-3-1-5-2-98-52-99-52-104-52-4 0-7 1-10 4-3 3-4 7-4 11l2 31c0 11-9 22-21 22l-264 0z m0-88c-4 0-7 3-7 7l0 36c0 13 11 31 26 31l60 0c4 0 7-3 7-7 0-4-3-7-7-7l-60 0c-6 0-12-10-12-17l0-36c0-4-3-7-7-7z m115 60l-7 0c-4 0-8 3-8 7 0 4 4 7 8 7l7 0c4 0 7-3 7-7 0-4-3-7-7-7z"/>
<glyph unicode="&#57344;" d="M487 74c0-27-22-49-49-49l-364 0c-27 0-49 22-49 49l0 250c0 27 22 49 49 49l364 0c27 0 49-22 49-49l0-250z m-28 250c0 12-10 21-21 21l-364 0c-11 0-21-9-21-21l0-250c0-11 10-21 21-21l364 0c11 0 21 10 21 21l0 250z m-370-79c-4 0-7 4-7 7l0 27c0 20 16 37 35 37l128 0c4 0 7-3 7-7 0-4-3-7-7-7l-128 0c-11 0-21-11-21-23l0-27c0-3-3-7-7-7z m0-35c-4 0-7 3-7 7l0 14c0 4 3 7 7 7 4 0 7-3 7-7l0-14c0-4-3-7-7-7z m341 192l-349 0c-7 0-14 6-14 14 0 8 7 14 14 14l349 0c8 0 14-6 14-14 0-8-6-14-14-14z m-43 57l-263 0c-8 0-14 6-14 14 0 8 6 14 14 14l263 0c8 0 14-6 14-14 0-8-6-14-14-14z"/>
<glyph unicode="&#57345;" d="M439 100l-36 0c-8 0-15 6-15 14 0 8 7 14 15 14l36 0c11 0 23 11 23 23l0 179c0 12-13 18-23 18l-371 0c-10 0-18-6-18-18l0-179c0-12 7-23 18-23l43 0c8 0 14-6 14-14 0-8-6-14-14-14l-43 0c-27 0-47 23-47 51l0 179c0 27 19 47 47 47l371 0c28 0 52-20 52-47l0-179c0-28-26-51-52-51z m-27-29c0-28-22-50-49-50l-214 0c-27 0-49 22-49 50l0 93c0 27 22 49 49 49l214 0c27 0 49-22 49-49z m-28 93c0 12-9 21-21 21l-214 0c-12 0-21-9-21-21l0-93c0-12 9-21 21-21l214 0c12 0 21 9 21 21z m14 184c-8 0-14 7-14 15l0 81c0 12-13 18-24 18l-214 0c-10 0-18-6-18-18l0-81c0-8-6-15-14-15-8 0-14 7-14 15l0 81c0 26 18 47 46 47l214 0c29 0 52-21 52-47l0-81c0-8-6-15-14-15z m-287-42l-21 0c-4 0-7 3-7 7 0 4 3 7 7 7l21 0c4 0 7-3 7-7 0-4-3-7-7-7z m50 0l-21 0c-4 0-8 3-8 7 0 4 4 7 8 7l21 0c4 0 7-3 7-7 0-4-3-7-7-7z m235-64l-285 0c-4 0-7 3-7 7 0 4 3 7 7 7l285 0c3 0 7-3 7-7 0-4-4-7-7-7z"/>
<glyph unicode="&#57346;" d="M354 110l-196 0c-28 0-43 17-43 42l0 197c0 25 16 53 43 53l196 0c27 0 53-28 53-53l0-197c0-25-25-42-53-42z m-196 263c-10 0-14-12-14-24l0-197c0-12 7-13 14-13l196 0c7 0 24 1 24 13l0 197c0 12-14 24-24 24z m109-35l-7 0c-4 0-8 3-8 7 0 4 4 7 8 7l7 0c4 0 7-3 7-7 0-4-3-7-7-7z m-102-57c-4 0-7 3-7 7l0 17c0 23-5 47 34 47l39 0c4 0 7-3 7-7 0-4-3-7-7-7l-39 0c-25 0-20-9-20-33l0-17c0-4-3-7-7-7z m315 64l-36 0c-7 0-14 6-14 14 0 8 7 14 14 14l36 0c8 0 14-6 14-14 0-8-6-14-14-14z m0-78l-36 0c-7 0-14 6-14 14 0 8 7 14 14 14l36 0c8 0 14-6 14-14 0-8-6-14-14-14z m0-71l-36 0c-7 0-14 6-14 14 0 8 7 14 14 14l36 0c8 0 14-6 14-14 0-8-6-14-14-14z m0-64l-36 0c-7 0-14 6-14 14 0 8 7 14 14 14l36 0c8 0 14-6 14-14 0-8-6-14-14-14z m-329 291c-8 0-14 6-14 14l0 36c0 8 6 14 14 14 8 0 14-6 14-14l0-36c0-8-6-14-14-14z m71 0c-8 0-14 6-14 14l0 36c0 8 6 14 14 14 8 0 14-6 14-14l0-36c0-8-6-14-14-14z m78 0c-8 0-14 6-14 14l0 36c0 8 6 14 14 14 8 0 14-6 14-14l0-36c0-8-6-14-14-14z m64 0c-8 0-14 6-14 14l0 36c0 8 6 14 14 14 8 0 14-6 14-14l0-36c0-8-6-14-14-14z m-213-398c-8 0-14 6-14 14l0 36c0 8 6 14 14 14 8 0 14-6 14-14l0-36c0-8-6-14-14-14z m71 0c-8 0-14 6-14 14l0 36c0 8 6 14 14 14 8 0 14-6 14-14l0-36c0-8-6-14-14-14z m78 0c-8 0-14 6-14 14l0 36c0 8 6 14 14 14 8 0 14-6 14-14l0-36c0-8-6-14-14-14z m64 0c-8 0-14 6-14 14l0 36c0 8 6 14 14 14 8 0 14-6 14-14l0-36c0-8-6-14-14-14z m-296 320l-36 0c-8 0-14 6-14 14 0 8 6 14 14 14l36 0c7 0 14-6 14-14 0-8-7-14-14-14z m0-78l-36 0c-8 0-14 6-14 14 0 8 6 14 14 14l36 0c7 0 14-6 14-14 0-8-7-14-14-14z m0-71l-36 0c-8 0-14 6-14 14 0 8 6 14 14 14l36 0c7 0 14-6 14-14 0-8-7-14-14-14z m0-64l-36 0c-8 0-14 6-14 14 0 8 6 14 14 14l36 0c7 0 14-6 14-14 0-8-7-14-14-14z"/>
<glyph unicode="&#57347;" d="M85 363l-7 0c-33 0-60 27-60 60 0 33 27 61 60 61l7 0c34 0 61-28 61-61 0-33-27-60-61-60z m-7 92c-17 0-32-14-32-32 0-18 15-32 32-32l7 0c18 0 32 14 32 32 0 18-14 32-32 32z m7-427l-7 0c-33 0-60 28-60 61 0 33 27 60 60 60l7 0c34 0 61-27 61-60 0-33-27-61-61-61z m-7 93c-17 0-32-14-32-32 0-18 15-32 32-32l7 0c18 0 32 14 32 32 0 18-14 32-32 32z m7 71l-7 0c-33 0-60 27-60 60 0 34 27 61 60 61l7 0c34 0 61-27 61-61 0-33-27-60-61-60z m-7 92c-17 0-32-14-32-32 0-17 15-32 32-32l7 0c18 0 32 15 32 32 0 18-14 32-32 32z m178 79l-7 0c-33 0-61 27-61 60 0 33 28 61 61 61l7 0c33 0 60-28 60-61 0-33-27-60-60-60z m-7 92c-18 0-32-14-32-32 0-18 14-32 32-32l7 0c18 0 32 14 32 32 0 18-14 32-32 32z m7-427l-7 0c-33 0-61 28-61 61 0 33 28 60 61 60l7 0c33 0 60-27 60-60 0-33-27-61-60-61z m-7 93c-18 0-32-14-32-32 0-18 14-32 32-32l7 0c18 0 32 14 32 32 0 18-14 32-32 32z m7 71l-7 0c-33 0-61 27-61 60 0 34 28 61 61 61l7 0c33 0 60-27 60-61 0-33-27-60-60-60z m-7 92c-18 0-32-14-32-32 0-17 14-32 32-32l7 0c18 0 32 15 32 32 0 18-14 32-32 32z m185 79l-7 0c-34 0-61 27-61 60 0 33 27 61 61 61l7 0c33 0 60-28 60-61 0-33-27-60-60-60z m-7 92c-18 0-32-14-32-32 0-18 14-32 32-32l7 0c17 0 32 14 32 32 0 18-15 32-32 32z m7-427l-7 0c-34 0-61 28-61 61 0 33 27 60 61 60l7 0c33 0 60-27 60-60 0-33-27-61-60-61z m-7 93c-18 0-32-14-32-32 0-18 14-32 32-32l7 0c17 0 32 14 32 32 0 18-15 32-32 32z m7 71l-7 0c-34 0-61 27-61 60 0 34 27 61 61 61l7 0c33 0 60-27 60-61 0-33-27-60-60-60z m-7 92c-18 0-32-14-32-32 0-17 14-32 32-32l7 0c17 0 32 15 32 32 0 18-15 32-32 32z"/>
<glyph unicode="&#57348;" d="M415 24c-9 0-20 2-33 7l-3 1c-63 33-167 87-183 93l-58 0c-41 0-74 29-74 65l0 117c0 39 35 74 74 74l57 0c17 8 120 64 184 99l1 0c12 6 22 8 31 8 10 0 19-3 25-10 13-13 12-34 12-43l0-1 0-368c0-14-2-23-7-30-4-6-12-12-26-12z m-24 33c9-2 18-5 24-5 2 0 3 0 3 0 0 0 2 3 2 14l0 370c0 4 0 18-4 22 0 1-1 2-5 2-3 0-9-1-18-6-187-101-191-101-195-101l-60 0c-23 0-46-23-46-46l0-117c0-23 24-36 46-36l60 0c4 0 11 0 193-97z m-127 279c-4 0-7 3-7 7 0 4 2 6 5 7 7 3 61 31 94 49 9 5 23 10 33 4 6-4 9-13 9-25l0-25c0-4-3-7-7-7-4 0-7 3-7 7l0 25c0 10-2 12-3 13-1 0-5 2-19-5-94-50-96-50-98-50z m127-26c-4 0-7 3-7 7l0 7c0 4 3 7 7 7 4 0 7-3 7-7l0-7c0-4-3-7-7-7z m-192-171c-4 0-7 4-7 7l0 214c0 4 3 7 7 7 4 0 7-3 7-7l0-214c0-3-3-7-7-7z"/>
<glyph unicode="&#57349;" d="M364 35l-300 0c-27 0-46 22-46 50l0 250c0 26 19 48 46 48l300 0c27 0 52-22 52-48l0-65c0-8-6-15-14-15-8 0-14 7-14 15l0 65c0 11-12 20-24 20l-300 0c-11 0-18-9-18-20l0-250c0-12 7-22 18-22l300 0c11 0 24 10 24 22l0 64c0 7 6 14 14 14 8 0 14-7 14-14l0-64c0-28-25-50-52-50z m-256 50c-23 0-40 19-40 42l0 121c0 4 3 7 7 7 4 0 7-3 7-7l0-121c0-15 11-28 26-28 4 0 8-3 8-7 0-4-4-7-8-7z m35 0l-7 0c-4 0-7 3-7 7 0 4 3 7 7 7l7 0c4 0 7-3 7-7 0-4-3-7-7-7z m351 106c0-27-22-49-49-49l-101 0c-27 0-49 22-49 49l0 29c0 27 22 50 49 50l101 0c27 0 49-23 49-50l0-29z m-28 29c0 12-10 21-21 21l-101 0c-11 0-20-9-20-21l0-29c0-12 9-21 20-21l101 0c11 0 21 9 21 21l0 29z m-93-14c0-7-6-14-14-14-7 0-13 7-13 14 0 8 6 14 13 14 8 0 14-6 14-14z m-43 152c-8 0-14 6-14 14 0 42-35 77-77 77-42 0-76-35-76-77 0-8-7-14-15-14-7 0-14 6-14 14 0 58 47 105 105 105 58 0 105-47 105-105 0-8-6-14-14-14z"/>
<glyph unicode="&#57350;" d="M375 22c-8 0-16 2-23 6l-96 51-96-51c-16-9-35-8-50 2-15 10-22 28-19 46l19 112-82 81c-12 13-16 31-11 48 6 16 20 28 38 30l110 17 49 100c7 16 24 26 42 26 18 0 35-10 42-26l49-100 110-17c18-2 32-14 38-30 5-17 1-35-11-48l-82-81 19-112c3-18-5-36-19-46-8-5-18-8-27-8z m-119 88c2 0 5-1 7-2l103-55c6-4 14-3 20 1 5 4 8 10 7 17l-20 120c-1 4 1 9 4 12l87 87c4 4 6 11 4 17-2 7-8 11-15 12l-118 18c-5 1-9 3-11 8l-51 106c-3 7-10 11-17 11-7 0-14-4-17-11l-51-106c-2-5-6-7-11-8l-118-18c-7-1-13-5-15-12-2-6 0-13 4-17l87-87c3-3 5-8 4-12l-20-120c-1-7 2-13 7-17 6-4 14-5 20-1l103 55c2 1 5 2 7 2z m-156 174c-3 0-6 2-7 6 0 3 2 7 6 8l5 1c4 0 7-3 8-6 1-4-2-8-6-9l-5 0c0 0 0 0-1 0z m26 4c-3 0-6 2-7 6 0 3 2 7 6 8l77 15 29 66c2 4 6 6 9 4 4-2 6-6 4-9l-31-70c0-2-2-4-5-4l-80-16c-1 0-1 0-2 0z"/>
<glyph unicode="&#57351;" d="M252 18c-1 0-1 0-2 0-8 3-193 60-193 180l0 204c0 8 4 14 12 14 36 0 64 29 64 64 0 8 6 14 14 14l211 0c7 0 14-6 14-14 0-35 32-64 67-64 8 0 16-6 16-14l0-204c0-105-188-176-196-179-1-1-5-1-7-1z m-167 371l0-191c0-90 143-142 171-151 51 20 171 82 171 151l0 191c-43 6-76 34-82 77l-185 0c-7-43-39-71-75-77z m97-284c-1 0-2 0-3 1-27 14-48 33-61 56-2 4-1 8 3 10 3 2 8 0 9-3 12-21 31-38 56-51 3-1 4-6 3-9-2-3-4-4-7-4z m-70 84c-3 0-6 2-7 5-1 4-2 7-2 7-1 4 2 8 6 8 4 1 7-2 8-5 0-1 1-3 2-6 1-4-1-8-5-9-1 0-2 0-2 0z m137-157c-4 0-7 3-7 7l0 441c0 4 3 7 7 7 4 0 7-3 7-7l0-441c0-4-3-7-7-7z m188 221l-370 0c-4 0-7 3-7 7 0 4 3 7 7 7l370 0c4 0 7-3 7-7 0-4-3-7-7-7z"/>
<glyph unicode="&#57352;" d="M78 68c-37 0-67 30-67 67 0 37 30 68 67 68 37 0 68-31 68-68 0-37-31-67-68-67z m0 106c-21 0-39-17-39-39 0-21 18-39 39-39 22 0 39 18 39 39 0 22-17 39-39 39z m107 78c-37 0-68 31-68 68 0 37 31 68 68 68 37 0 67-31 67-68 0-37-30-68-67-68z m0 107c-22 0-39-17-39-39 0-22 17-39 39-39 21 0 39 17 39 39 0 22-18 39-39 39z m171-277c-38 0-68 30-68 67 0 38 30 68 68 68 37 0 67-30 67-68 0-37-30-67-67-67z m0 106c-22 0-40-17-40-39 0-21 18-39 40-39 21 0 39 18 39 39 0 22-18 39-39 39z m78 121c-37 0-68 31-68 68 0 37 31 67 68 67 37 0 67-30 67-67 0-37-30-68-67-68z m0 107c-22 0-39-18-39-39 0-22 17-39 39-39 21 0 39 17 39 39 0 21-18 39-39 39z m-17-38c-1 0-2 1-3 2-4 2-5 6-2 9 6 10 17 16 29 16 4 0 7-3 7-7 0-4-3-7-7-7-7 0-14-4-18-10-1-2-3-3-6-3z m-270-99l26-12-46-98-26 12z m92 21l95-98-20-20-95 99z m165 22l27-10-41-118-27 9z"/>
<glyph unicode="&#57353;" d="M260 107c-83 0-151 67-151 150 0 83 68 151 151 151 83 0 151-68 151-151 0-83-68-150-151-150z m0 272c-67 0-122-54-122-122 0-67 55-122 122-122 67 0 122 55 122 122 0 68-55 122-122 122z m-78-77c-1 0-2 1-4 1-3 2-4 7-2 10 15 25 42 40 71 40 3 0 7-3 7-7 0-4-4-7-7-7-24 0-47-13-59-33-1-2-4-4-6-4z m-10-35c-4 0-8 3-8 7 0 7 1 10 3 16 1 4 4 6 8 5 4-1 6-4 5-8-1-5-1-8-1-13 0-4-4-7-7-7z m94-249c-8 0-14 6-14 14l0 43c0 8 6 14 14 14 8 0 14-6 14-14l0-43c0-8-6-14-14-14z m0 405c-8 0-14 6-14 14l0 43c0 8 6 14 14 14 8 0 14-6 14-14l0-43c0-8-6-14-14-14z m-165-338c-3 0-7 1-10 4-5 5-5 14 0 20l30 30c6 6 15 6 20 0 6-5 6-14 0-20l-30-30c-3-3-6-4-10-4z m287 286c-4 0-7 2-10 5-6 5-6 14 0 20l30 30c5 5 14 5 20 0 6-6 6-15 0-20l-30-30c-3-3-7-5-10-5z m-257 0c-3 0-7 2-10 5l-30 30c-5 5-5 14 0 20 6 5 15 5 20 0l30-30c6-6 6-15 0-20-2-3-6-5-10-5z m287-286c-4 0-7 1-10 4l-30 30c-6 6-6 15 0 20 5 6 14 6 20 0l30-30c6-6 6-15 0-20-3-3-6-4-10-4z m-343 153l-43 0c-8 0-14 7-14 14 0 8 6 15 14 15l43 0c8 0 14-7 14-15 0-7-6-14-14-14z m405 0l-43 0c-8 0-14 7-14 14 0 8 6 15 14 15l43 0c8 0 14-7 14-15 0-7-6-14-14-14z"/>
<glyph unicode="&#57354;" d="M448 78c0-27-22-50-49-50l-286 0c-27 0-49 23-49 50l0 356c0 27 22 50 49 50l286 0c27 0 49-23 49-50z m-28 356c0 12-10 21-21 21l-286 0c-11 0-21-9-21-21l0-356c0-12 10-21 21-21l286 0c11 0 21 9 21 21z m-167-340c-64 0-116 52-116 116 0 65 52 117 116 117 65 0 117-52 117-117 0-64-52-116-117-116z m0 219c-56 0-102-46-102-103 0-56 46-102 102-102 57 0 103 46 103 102 0 57-46 103-103 103z m-32-172c-1 0-2 0-3 1-26 13-42 39-42 68 0 4 3 7 7 7 4 0 7-3 7-7 0-23 13-45 35-56 3-2 4-6 3-9-2-3-4-4-7-4z m32-8c-4 0-7 3-7 7 0 4 3 7 7 7 5 0 9 1 13 2 4 0 8-2 8-6 1-4-1-8-5-8-5-1-10-2-16-2z m178 230l-355 0c-4 0-8 3-8 7 0 4 4 7 8 7l355 0c4 0 7-3 7-7 0-4-3-7-7-7z m-256 42l-14 0c-4 0-7 4-7 7 0 4 3 8 7 8l14 0c4 0 7-4 7-8 0-3-3-7-7-7z m-43 0l-14 0c-4 0-7 4-7 7 0 4 3 8 7 8l14 0c4 0 8-4 8-8 0-3-4-7-8-7z"/>
<glyph unicode="&#57355;" d="M255 28c-56 0-102 46-102 102 0 56 46 102 102 102 56 0 101-46 101-102 0-56-45-102-101-102z m0 175c-41 0-73-33-73-73 0-40 32-73 73-73 40 0 73 33 73 73 0 40-33 73-73 73z m-41-56c-1 0-3 0-4 1-3 2-4 6-2 9 9 17 27 27 47 27 4 0 7-3 7-7 0-4-3-7-7-7-15 0-28-7-35-20-1-2-4-3-6-3z m-5-36c-3 0-6 2-7 5-1 5-2 9-2 14 0 4 3 7 7 7 4 0 8-3 8-7 0-4 0-7 1-10 1-4-1-8-5-9-1 0-1 0-2 0z m133 145c-3 0-5 0-8 2-24 15-51 22-79 22-28 0-55-7-79-22-7-4-15-2-20 5-4 7-2 15 5 19 28 18 61 27 94 27 33 0 66-9 94-27 7-4 9-13 5-20-3-4-7-6-12-6z m47 73c-2 0-5 1-7 2-38 24-82 37-127 37-44 0-86-12-123-34-7-4-15-2-19 5-4 6-2 15 5 19 41 25 88 38 137 38 50 0 99-14 142-41 6-4 8-13 4-19-3-5-7-7-12-7z m42 77c-2 0-5 1-7 2-51 31-110 47-169 47-59 0-117-16-167-46-6-4-15-1-19 5-4 7-2 16 5 20 54 32 117 50 181 50 65 0 128-18 183-52 7-4 9-13 5-19-2-5-7-7-12-7z"/>
<glyph unicode="&#57356;" d="M484 379c0-58-47-105-105-105l-246 0c-58 0-105 47-105 105l0 3c0 58 47 105 105 105l246 0c58 0 105-47 105-105z m-29 3c0 42-34 77-76 77l-246 0c-42 0-76-35-76-77l0-3c0-43 34-77 76-77l246 0c42 0 76 34 76 77z m-28-23c-4 0-7 3-7 7l0 4c0 30-27 53-58 53l-30 0c-4 0-8 3-8 7 0 4 4 7 8 7l30 0c39 0 72-29 72-67l0-4c0-4-3-7-7-7z m-124 64l-14 0c-4 0-7 3-7 7 0 4 3 7 7 7l14 0c4 0 7-3 7-7 0-4-3-7-7-7z m-163-102c-34 0-62 28-62 62 0 34 28 62 62 62 34 0 62-28 62-62 0-34-28-62-62-62z m0 95c-19 0-34-15-34-33 0-19 15-34 34-34 18 0 33 15 33 34 0 18-15 33-33 33z m344-286c0-58-47-105-105-105l-246 0c-58 0-105 47-105 105l0 3c0 58 47 105 105 105l246 0c58 0 105-47 105-105z m-29 3c0 43-34 77-76 77l-246 0c-42 0-76-34-76-77l0-3c0-42 34-77 76-77l246 0c42 0 76 35 76 77z m-370-20c-4 0-7 3-7 7l0 1c0 3-1 5 0 8 0 3 3 6 7 6 4-1 7-4 7-8 0-2 0-4 0-6l0-1c0-4-3-7-7-7z m7 32c-2 0-3 1-4 1-3 2-5 6-3 10 13 21 36 35 61 35 4 0 7-3 7-7 0-4-3-7-7-7-20 0-38-11-48-28-2-3-4-4-6-4z m276-73c-34 0-62 28-62 62 0 34 28 62 62 62 34 0 62-28 62-62 0-34-28-62-62-62z m0 95c-18 0-33-15-33-33 0-18 15-33 33-33 19 0 33 15 33 33 0 18-14 33-33 33z"/>
<glyph unicode="&#57357;" d="M314 252c-8 0-15 6-15 15l-1 64c0 4 1 8 4 11 5 5 14 6 21 2l53-32c6-3 9-7 9-13 0-4-3-9-8-12l-53-33c-3-2-6-2-10-2z m0 80c-1 0-2 0-2 0l1-65c0-1 1-2 4-1l53 33c0 0 0 0 0 0 0 1 0 1-1 1l-53 32c-1 0-1 0-2 0z m-58-307c-127 0-231 104-231 231 0 127 104 231 231 231 127 0 231-104 231-231 0-127-104-231-231-231z m0 434c-112 0-203-91-203-203 0-112 91-203 203-203 112 0 203 91 203 203 0 112-91 203-203 203z m172-210c-4 0-7 3-7 7 0 74-50 139-121 159-4 1-7 5-5 9 1 3 5 6 8 5 78-22 132-93 132-173 0-4-3-7-7-7z m-162 171c-1 0-1 0-1 0-3 1-6 1-9 1-4 0-7 3-7 7 0 4 3 7 7 7 3 0 7 0 10 0 4-1 7-4 7-8-1-4-4-7-7-7z m-124-250c-13 0-22 3-22 3-4 1-6 6-4 9 1 4 5 6 9 4 2 0 57-19 95 58 34 70 84 62 86 62 4-1 7-4 6-8-1-4-4-7-8-6-2 0-42 5-71-54-28-58-67-68-91-68z m172-26c-5 0-9 1-12 5-3 2-4 6-4 10l1 65c0 8 7 15 15 15 4 0 7-1 10-3l53-33c5-3 8-7 8-12 0-5-3-10-9-13l-53-32c-3-1-6-2-9-2z m0 80c-1 0-1 0-1 0l-1-65c1-1 2-2 4 0l53 31c0 0 1 1 1 1 0 0 0 0 0 0l-53 33c-1 0-2 0-3 0z m-18-40c-18 0-58 6-76 63-10 30-25 49-44 58-25 11-51-1-51-1-3-2-8 0-9 4-2 3 0 7 3 9 1 1 31 14 63 1 23-11 40-33 51-67 20-62 68-53 70-53 4 1 8-2 9-5 1-4-2-8-6-9 0 0-4 0-10 0z"/>
</font>
</defs>
</svg>
